/* XPM */
static char *ae2ddcd16f89494aed8aa695860134aeTRsZzIL3CCAQYv6W[] = {
/* columns rows colors chars-per-pixel */
"64 64 220 2 ",
"   c #2E1C0F",
".  c #351B0F",
"X  c #281E10",
"o  c #3B1B10",
"O  c #2D290E",
"+  c #2B250E",
"@  c #2C2112",
"#  c #24231F",
"$  c #322614",
"%  c #362915",
"&  c #392B17",
"*  c #3D2E18",
"=  c #3D2713",
"-  c #3C3314",
";  c #3E3118",
":  c #373411",
">  c #322B12",
",  c #292824",
"<  c #373727",
"1  c #3B3932",
"2  c #2C3927",
"3  c #5A0A0A",
"4  c #4C1D09",
"5  c #670C0C",
"6  c #770E0E",
"7  c #761B13",
"8  c #582304",
"9  c #492B16",
"0  c #552716",
"q  c #43341B",
"w  c #46381C",
"e  c #4B3C1D",
"r  c #463816",
"t  c #5B3618",
"y  c #4E250A",
"u  c #632805",
"i  c #6C2B06",
"p  c #602605",
"a  c #732F07",
"s  c #742309",
"d  c #773007",
"f  c #7D3207",
"g  c #652818",
"h  c #77271A",
"j  c #693B18",
"k  c #763A18",
"l  c #7A1F2F",
"z  c #7A1F30",
"x  c #4C3B22",
"c  c #463924",
"v  c #513E24",
"b  c #513430",
"n  c #6A2623",
"m  c #742728",
"M  c #7A2230",
"N  c #6E3B29",
"B  c #3E4B08",
"V  c #3A4708",
"C  c #34472A",
"Z  c #334B3E",
"A  c #455309",
"S  c #4C5C0A",
"D  c #48570A",
"F  c #494516",
"G  c #50401F",
"H  c #564A17",
"J  c #57571A",
"K  c #414F09",
"L  c #615219",
"P  c #7A421A",
"I  c #5A6D0C",
"U  c #54650C",
"Y  c #5E720D",
"T  c #576716",
"R  c #61750D",
"E  c #667B0E",
"W  c #697E0E",
"Q  c #68741B",
"!  c #626A0C",
"~  c #524123",
"^  c #584826",
"/  c #444238",
"(  c #524E33",
")  c #695433",
"_  c #665132",
"`  c #6A5228",
"'  c #4A7521",
"]  c #547629",
"[  c #766039",
"{  c #7C633D",
"}  c #6E7B32",
"|  c #666F27",
" . c #1A314C",
".. c #1D3553",
"X. c #1F3A5A",
"o. c #203C5E",
"O. c #213E61",
"+. c #403F40",
"@. c #38585E",
"#. c #364549",
"$. c #0C6B50",
"%. c #13645A",
"&. c #0F7D5E",
"*. c #0D7557",
"=. c #0B6A4F",
"-. c #296B4D",
";. c #31714F",
":. c #357452",
">. c #387654",
",. c #327D5A",
"<. c #307255",
"1. c #25456C",
"2. c #234166",
"3. c #304C6D",
"4. c #284B75",
"5. c #2A4E7A",
"6. c #274971",
"7. c #235A73",
"8. c #2B507D",
"9. c #2B5275",
"0. c #0F7F60",
"q. c #2F7964",
"w. c #444444",
"e. c #484849",
"r. c #40484F",
"t. c #424B53",
"y. c #5F5D5C",
"u. c #535953",
"i. c #507957",
"p. c #41566C",
"a. c #4C5E72",
"s. c #556A63",
"d. c #4E6175",
"f. c #4E6677",
"g. c #6B6B6B",
"h. c #676767",
"j. c #6F6658",
"k. c #850F0F",
"l. c #940F16",
"z. c #9E0F16",
"x. c #8D1110",
"c. c #871513",
"v. c #911111",
"b. c #9C1212",
"n. c #951B15",
"m. c #AA0F16",
"M. c #A30F16",
"N. c #B40F16",
"B. c #BD0F16",
"V. c #A51414",
"C. c #AB1414",
"Z. c #B51515",
"A. c #BB1616",
"S. c #823407",
"D. c #853508",
"F. c #842D18",
"G. c #942A1F",
"H. c #962E22",
"J. c #993324",
"K. c #893731",
"L. c #A52F23",
"P. c #85471B",
"I. c #91620B",
"U. c #897E08",
"Y. c #867B07",
"T. c #946A1C",
"R. c #8F7025",
"E. c #967B49",
"W. c #806740",
"Q. c #936D6F",
"!. c #6B810F",
"~. c #748C11",
"^. c #708710",
"/. c #6F8710",
"(. c #798021",
"). c #37825E",
"_. c #0F8161",
"`. c #0F8B68",
"'. c #108564",
"]. c #118D6A",
"[. c #108967",
"{. c #33866E",
"}. c #368C74",
"|. c #39957B",
" X c #958909",
".X c #998D09",
"XX c #928608",
"oX c #9D9009",
"OX c #95831D",
"+X c #8E8308",
"@X c #A89B0A",
"#X c #A59809",
"$X c #968F2E",
"%X c #AAA134",
"&X c #A09631",
"*X c #9F844D",
"=X c #A1854E",
"-X c #A68655",
";X c #A38451",
":X c #A68852",
">X c #AE8C56",
",X c #AF8E58",
"<X c #B18E58",
"1X c #B4915B",
"2X c #B8945F",
"3X c #938C7E",
"4X c #BA9661",
"5X c #BC9862",
"6X c #2E5584",
"7X c #2F5889",
"8X c #2F5788",
"9X c #315B8E",
"0X c #959595",
"qX c #9A9A9A",
"wX c #978E81",
"eX c #A1A1A1",
"rX c #AAAAAA",
"tX c #A8A8A7",
"yX c #B2B2B2",
"uX c #B0B1AF",
/* pixels */
";X-X-X-X-X;XE.;XE.E.E.E.E.E.E.E.E.E.E.E.*X-X-X-X-X-X;X*X;X*X*X;X;XE.E.E.;XE.-X;X*X;XE.-XE.-XE.-XE.E.-XE.E.-X-X-X-X-X-X-X-X-XE.E.",
"<X5X5X4X>X;X;X=X;X;X=X=X=X=XE.*X*X*XE.*X2X5X5X5X5X5X5X4X,X,X,X-X;X;X*X=X-X>X>X<X>X>X<X<X<X<X>X<X4X2X5X5X5X5X5X5X5X4X5X5X5X5X-X;X",
">X>X_ q c q q c x q c q c w ; * c x x c x x x ~ J J J J J J J J e c q < c w w w w c q c x x c q c q v v v x x x x v x x x _ ;X*X",
"=X*Xc X X X X X X X X X X X X X X X X X X X @ + B B K K V V V V + @ + X   X X X X X X X X X X X X X X   X X X X X X X X @ x ;X*X",
"*X=Xx X X X X X X X X X X X X X @ X X X + + + O D A D D B B V V + X X X X X X X X X X X + @ @ @ X X X X X X X X @ X X X @ x *X*X",
"*X1Xv @ . X . X X . X X X X @ @ , , , , , # # 2 D D S S D D B B + X X X X X X X X X X @ + + + + O + + + +   @ X X @ @ @ @ x *X*X",
">X<Xh 3 5 5 5 5 3 3 . X @ @ @ , 2.2.2.1.2.X.X...S S U U S S A B O + @ @   X X X @ @ @ O V B B B K K B K > X @ @ $ $ $ % $ v =X*X",
">X1Xg 3 5 5 5 3 3 3 = @ @ @ % , 6.4.4.4.6.1.2.#.T T Y Y U U S D > @ $ % $ $ $ $ @ O @ : B D S S D A A A : $ $ % % % % % % ^ :X*X",
"<X<Xh 3 5 5 5 5 5 5 o @ % % % 1 6.8.6X6X4.6.1.@.Y Y E !.Y I U U : % & & & & % & & % % : U U U I U U S S : % & & & & & & & ^ :X*X",
"-X-Xg 3 6 5 5 5 3 5 . @ % * & 1 5.6X6X8X6X8.6.@.E E !./.E Y I U : % ; r ; r - q ; q q F Y Y E E Y Y U U : & & * * * * ; & ^ ;X*X",
"=X=Xn 3 5 6 5 5 5 5 o X $ q q 1 8.6X9X7X6X8.6.@.E !././.!.E Y Y V % ; t g 7 6 7 w w r F E Y !.!.!.Y I I - % % & q ; ; ; * G =X*X",
"=X-XN 0 n m n n n n < 2 2 C < Z 5.6X9X9X6X6X5.@.!.E /./.!.!.Y ! g n.V.b.V.v.v.k.q e e H E E ^.~.!.!.Y I C 2 2 C 2 < 2 < 2 ( *X*X",
"2X5Xj.y.g.g.g.h.h.s.*._.[._.=.%.5.6X7X9X6X6X8.@.!.E /.~.!.!.Y ! V.A.A.V.V.b.x.v.9 r e H !.E ~.~.!.!.Y ' &.&.0.&.&.*.$.$.=.:.:X*X",
"1X5Xj.y.g.g.g.g.h.s.*._.[._.=.%.5.8.7X9X6X6X5.@.!.!.~.~.!.!.Y Y n.Z.A.C.V.C.v.v.g q e J !.!.~.~.!.!.Y ' &.&.'.'.0.0.*.$.$.:.:X*X",
"W.W.y.y.g.g.g.h.h.s.$._.`._.$.%.5.5.9X9X6X6X8.@.!.!.~.~.!.!.R I F.V.A.Z.V.V.b.v.7 q w H !.!.~.~./.!.Y ' &.'.[.'.'.&.&.$.=.-.[ [ ",
"_ ) u.y.g.g.g.g.g.s.$._.[._.$.%.5.8.7X7X6X6X8.@.Q | Q !.Q | T T j V.Z.A.C.V.V.x.k.* r H !.E ^.~.!.!.E ' {.}.|.|.}.}.{.q.q.:.) ) ",
"-X-XN n n m n l n b *.&.].'.$.%.5.5.8X9X8X6X9.3.w.w.e.e.e.w.w./ c V.Z.A.C.V.V.b.v.0 ; H !.!.~.~.!.!.Y (.eXrXyXyXyXrXeXqX0XwX-X-X",
"5X5Xm 5 6 6 6 6 6 n *.&.[.'.$.%.5.5.8X9X8X8.5.3.w.w.e.e.e.w.#.#.< n.V.A.Z.V.V.b.v.0 ; F !.!.~.~./.!.Y } eXrXyXyXrXtXeXqX0XwX2X,X",
":X=XF.5 k.k.k.k.6 g *.&.].'.$.%.5.5.9X9X6X6X5.3.w.e.e.e.w.w.w.b < 7 V.A.A.V.C.V.v.7 - F !.!.~.~.!.!.Y (.eXrXyXyXyXrXeXqX0XwX*X*X",
"=X=XF.6 v.b.x.x.c.m *.&.].'.$.%.5.5.8X9X8X6X5.3.w.w.e.e.e.w.+.+.< g V.Z.A.C.V.V.b.c.- F !.!.~.~.!.!.' (.eXrXyXyXrXrXeXqX0XwX;X;X",
"<X<XF.k.b.V.b.v.c.g &._.].'.$.%.5.5.8X9X6X6X5.3.w.e.e.e.w.w./ #.q q V.C.A.Z.V.V.b.v.9 F !.!./.~.!.!.R ] }.}.|.|.}.}.{.{.q.i.,X,X",
"2X2XJ.x.C.C.b.b.x.n &._.].'.$.%.5.9.9X9X8X8.5.3.w.w.e.e.w.w.w.#.* ; n.V.A.A.V.V.V.v.g F !.!./.~.!.!.R ' 0.0.].]._._.&.&.=.<.1X1X",
":X:XG.x.C.N.V.b.x.m &.&.].'.$.%.5.5.8X9X8X6X5.3.w.e.e.e.e.w.w.b < ; 7 m.Z.A.C.V.M.b.7 F !.!.~.~.!.!.R ' 0.0.`.`.'._._.&.=.<.;X:X",
"=X=XG.x.C.Z.C.b.v.m &.&.].'.=.%.5.5.8X9X6X8.5.3.w.w.e.e.e.w.w.#.< ; g V.V.A.Z.V.V.b.x.F !.!.~.~.^.!.R ' 0.0.].`.[.'.&._.=.<.*X*X",
">X<XJ.v.Z.Z.V.V.x.n _.&.].'.$.%.5.5.6X6X6X6X4.@.| Q Q Q Q | T T r r 9 V.V.A.A.V.V.b.x.t !.!.~.~.!.!.R ' _._.`.`.'._.&.&.=.:.<X1X",
"<X<XJ.v.Z.Z.C.b.v.m &.&.'.'.$.%.5.5.6X6X6X6X5.@.R !.~.~.!.!.Y Y F & q n.V.Z.A.C.V.b.v.k !.!.~.~.!.!.R ' &._.].`.'._._.*.=.>.5X2X",
"1X1XJ.v.C.Z.V.b.x.k &.&.&.*.$.%.5.5.8.6X6X5.5.@.R !.~.~./.W Y Y r - ; h V.C.A.C.V.v.v.d E !./.~.!.!.Y ' &._.`.`.'._.&.*.$.>.5X5X",
"1X1XG.v.C.C.V.b.l.m &.&.&.*.$.%.5.5.8.6X5.5.5.@.Y !.~.~.!.E Y Y F & ; t V.V.C.V.b.v.v.F.!.!././.!.E Y ' &._.`._.'.&.&.$.$.>.2X2X",
"1X<XJ.x.V.V.z.v.x.m &.&.&.=.$.%.5.5.5.5.5.5.6X@.Y !.^.!.W R ! Y r * & 9 V.V.V.V.l.x.7 j R W !./.E R R ' _._._._._._.*.$.$.:.2X5X",
"E.=XJ.G.G.H.G.G.G.N ,.<.-.-.-.-.p.p.p.p.p.p.p.u.Q Q Q Q Q Q Q Q ^ x c x J.G.F.k N v ~ L Q Q Q Q Q Q Q | ).{.).,.<.<.<.;.;.i.-X>X",
") ) ) ` ) _ ) ) ) ) ) ) ) ) ) ) ) _ ) ` _ ) ) _ _ ) ) ) ) ) ) ) ) ) ) ) ) ) ) ) _ ) ) _ ) ) ) ) ) ) ) ) ) ) ) ) ) ) ) ) ) ) ) ) ",
"W.W.W.W.{ { { [ { [ { [ [ { [ { { { { { { { { { { { { { { W.{ { { { { { { { W.{ { W.W.W.W.W.{ W.{ { { { { W.{ { { { { { { { { [ ",
"4X4X4X,X*X*X*X*X=X=X=X=X=X=X=X=X*X*X*X*X,X<X<X2X5X5X5X5X5X5X1X1X,X1X,X-X=X>X5X5X5X5X5X5X5X5X5X5X5X5X5X5X5X5X5X5X5X5X5X5X5X5X:X=X",
",X5X4X5X>X:XE.E.=X:X=X=X=X;X=X;X:X;X:X-X<X2X4X5X5X5X5X5X2X1X1X<X>X:X*X*X=X-X1X4X2X5X5X5X5X5X5X5X5X5X5X5X5X5X5X5X5X5X2X5X5X5X:X=X",
"4X4X) x x x * * w x x x x x v x x x x v b ~ v ^ ~ ^ ~ v ~ v v x G G x G x x x x x c e w e x c c #.t.t.t.r.r.r.r.v c x c x ) :X=X",
">X4Xx X X @ X X X X X X X @ X X @ @ $ $ $ % % % & & & & & & % & % % % % % $ > > $ $ $ $ @ @   # ......X. . . . ., X X X X x =X*X",
">X1Xc X X X X X X X X $ X @ $ X % $ % % $ = = * & & * * & * * & * = = = * & & & * = % % $ % % , o.X......... . ., X X X X q =X*X",
">X<Xx X X X X X X @ @ $ $ = 0 0 0 0 0 0 9 0 * * * q * * * * * q ; q H H H H H F r r : * & % & , 2.O.2.o.X..... .# X X @ @ e *X*X",
"*X*Xc X X X X @ @ $ $ & = 0 C.Z.Z.Z.V.l.x.x.0 * * * q 9 9 * q q q H  X.X#X#X X+XY.Y.e & * * & 2 6.1.1.1.o.o....., X @ @ @ ~ ;X=X",
"=X*Xq X X X @ @ % % & = q 0 Z.Z.Z.Z.C.b.x.x.0 q q c * * q q q q q H .XoX#X#X.XXXY.Y.H c * * ; 1 4.4.4.4.1.2.o.o., $ $ $ % ~ :X*X",
">X1Xe X X @ @ % = & ; * q 0 V.Z.A.Z.C.z.v.v.y q r w w w 9 c 9 w q H .XoX@X@X.X XU.U.G w r q q 1 8.5.6X6X4.6.2.2.< % % % % ^ -X;X",
",X<Xc @ X @ $ & * * q * q 0 V.Z.A.A.C.V.v.v.0 q e e w x w e e e r L .XoX@X@XoX XU.U.H w w e w b 6X6X6X7X8.5.6.6.< & * * * ^ -X*X",
"=X*Xq   + $ & * q * q q q t C.C.A.A.Z.b.x.l.9 q e e e e e e G v e L .XoX@X@X.XXX+X+Xt ; c e x / 6X6X7X9X6X8.4.4.1 & * * ; ~ *X*X",
"=X=Xe   . = 9 9 9 q 9 9 9 g C.V.A.A.C.V.v.x.0 * e G ~ G e ~ G J H ` $X&X%X%X&X$X$XR.j 0 g 0 j b 6X6X7X7X6X6X5.9.#.C C C 2 ( *X*X",
">X1Xt 4 8 u d a i i u u u s V.V.A.A.V.V.v.v.0 ; e G G G G ~ t Q /.} eXtXuXyXrXeX0XQ.B.B.B.N.l.z 6X6X7X9X6X6X8.7.].].]._.$.:.:X*X",
"=X:Xt 4 8 d f d a i i u u s C.V.A.A.C.b.v.v.9 ; e ~ G G ~ ~ H ~.E } eXrXuXyXrXeX0XQ.N.B.B.N.l.z 6X6X9X9X6X6X8.7._.].].'.$.:.E.E.",
") ) 9 8 p d S.S.d a i u u s V.V.Z.A.C.V.v.x.0 ; x v G G G G T ~.R } eXrXuXyXrXeX0XQ.M.B.B.N.l.z 6X7X9X9X6X6X8.7._.`.`.'.=.-._ ) ",
"{ { y 4 u d D.S.d d i i u s V.V.A.A.V.V.v.c.b 1 C / ~ G ~ G Q !.Y | eXrXuXyXrXeX0XQ.M.N.B.N.l.z 6X7X9X9X6X6X8.7.&.[.`._.=.-.{ { ",
"1X1Xt y i d D.D.f d i i p s V.V.Z.A.Z.V.v.M 9X9X8.9./ G ~ G ~.E R e.eXtXyXyXrXeX0XQ.m.N.B.N.l.l 8.6X7X9X6X6X8.7.&.'.].[.$.:.1X<X",
",X,Xj 8 a f D.D.d a i i u s V.V.A.A.C.b.v.M 9X9X8.8./ ~ e J ~.R ! ( eXtXyXyXrXeX0XQ.m.N.B.N.l.l 6X6X9X9X8X6X8.7.&.'.].'.$.:.<X1X",
"*X*Xt 8 i f D.D.d a i u i s V.C.Z.A.C.V.v.M 9X9X8.5./ G r R !.R F ( eXtXyXyXrXeX0XQ.m.N.B.N.l.l 6X7X9X9X6X6X8.7.&.'.].'.=.;.=X=X",
"=X:Xt 8 d S.D.D.d d i i p s V.V.Z.A.C.b.v.M 9X6X8.9./ e r ~.E I q ( eXrXyXyXrXeX0XQ.m.N.B.N.l.l 8.7X9X9X6X6X8.7.&._.].'.$.;.=X=X",
"<X<XP y i f D.D.d d i i u s V.V.Z.A.Z.V.l.z 9X8X8.4./ q S ~.Y U q ^ &X&X%X%X&X$X$XT.M.m.B.N.l.l 8.6X9X9X7X8X8.7.&.&.].'.$.:.2X5X",
"<X1Xj 8 d S.D.S.d d i i u s V.V.A.A.C.b.v.m 9X6X8.5.1 ; Q !.Y F q H .XoX@X@XoX XY.I.m.m.B.N.l.l 8.8X9X9X8X8X8.7.&._.].'.=.:.5X5X",
"2X2XP 8 d f D.S.d d i i i s V.C.Z.A.C.V.v.M 6X6X8.8.1 : ~.R R q r H .XoX@X@XoXXXY.I.m.m.B.N.l.l 8.8X7X9X6X6X5.7.&.&.].[.=.>.5X5X",
"5X5Xj 8 d f D.D.d a i i u s V.V.Z.A.C.b.x.M 6X6X8.4.1 J ~.R U q r L .XoX@X@XoXXXY.I.m.m.B.N.l.z 5.8X9X9X8X6X8.7.&.&.`.'.=.>.2X2X",
"5X5XP 8 d S.D.D.d a i i 8 s V.V.Z.A.C.V.x.M 6X6X5.5.1 E !.Y F ; e L .X.X@X@X.XXXU.I.m.m.B.N.l.z 8.6X9X9X6X6X8.7.&.&.].'.$.;.=X:X",
"1X1Xj 8 d S.D.D.d a i i i s V.V.A.A.C.V.x.M 6X6X5.5.C ~.E Y r r x L .X.X#X#X.XXXU.I.m.m.N.m.l.z 5.9X9X9X6X6X8.7.&.&.'._.$.;.=X:X",
"1X1Xj 8 i f D.D.d d i i i s V.C.Z.A.V.V.v.M 6X6X5.5.( ~.Y U - q e H XX.X.X.X.XXXU.I.m.m.m.M.l.z 5.6X9X9X6X6X8.7.&.&.&.*.$.:.2X2X",
"1X2XP 8 i f D.f d i i u 8 s V.V.C.A.V.b.v.m 8.5.5.5.] /.Y F ; q r H U. X.X.X.XU.U.I.m.m.m.z.l.z 8.8.9X9X6X6X9.7._.&.&.*.$.>.5X5X",
"2X5XL 8 u S.S.f d a i 8 i s V.V.V.V.V.v.x.M 5.8.5.3.~.W ! & % % % F U.U.U.+XU.U.+XI.C.m.m.l.l.z 5.8.8X8X6X8.8.7.&._._.$.$.i.2X2X",
"5X5X[ k P P.P.P.P P P P P k L.L.L.L.J.G.J.K.d.f.d.s.$X(.Q ~ x G ~ ` R.OXOXOXOXOXR.T.L.L.H.H.H.K.a.a.f.f.f.d.d.f.).).>.>.>.i.2X1X",
"W.W.W.[ { { { { { { { { [ [ [ [ [ [ [ [ { { { { { { [ { { { [ [ { { { W.W.{ W.{ [ [ [ [ [ [ { { { { { { W.{ { W.{ { { { { { { { ",
"_ ) ) _ ) ) ) ) ) ) ) ) ) ) ) ) ) ) ) ) ) ) ) ) ) ) ) ) ) ) ) ) ) ) ) ) ) ) ) ) ) ) ) ) ) ) ) ) ) ) ) ) ) ) ) ) ) ) ) ) ) ) ) ) "
};
