/* XPM */
static char *_69b8084fdff428799ae1a39a13c72a6DNO2FYYAgLYAhLS6[] = {
/* columns rows colors chars-per-pixel */
"64 64 196 2 ",
"   c #676767",
".  c #6B6B6B",
"X  c #677677",
"o  c #687175",
"O  c #747474",
"+  c #757779",
"@  c #747A7A",
"#  c #7B7B7B",
"$  c #6C7F80",
"%  c #757E82",
"&  c #7C7F81",
"*  c #6F8C8E",
"=  c #6E8182",
"-  c #718587",
";  c #7B8183",
":  c #73858C",
">  c #728D8E",
",  c #78858C",
"<  c #6F8D90",
"1  c #758790",
"2  c #758C95",
"3  c #6E9395",
"4  c #6E979C",
"5  c #6D9B9E",
"6  c #649497",
"7  c #759294",
"8  c #75919E",
"9  c #7C9394",
"0  c #6D9EA1",
"q  c #7393A2",
"w  c #749AA7",
"e  c #6DA6AF",
"r  c #6AA9AD",
"t  c #67A2A6",
"y  c #74A2A5",
"u  c #7BA7AA",
"i  c #6EA2B0",
"p  c #69AEB2",
"a  c #72A3B3",
"s  c #7CA3B6",
"d  c #77A3BA",
"f  c #77AFBB",
"g  c #7BACB0",
"h  c #6CB5B9",
"j  c #7AB9BD",
"k  c #7CB6BA",
"l  c #75A7C0",
"z  c #74ACC2",
"x  c #74AECA",
"c  c #79ADC8",
"v  c #76BEC3",
"b  c #7FB1CC",
"n  c #7AB5D3",
"m  c #76BADD",
"M  c #7DBFE2",
"N  c #65C1C7",
"B  c #66C6CC",
"V  c #73C0C5",
"C  c #65CED6",
"Z  c #7EC8D1",
"A  c #71C7DC",
"S  c #62D4DB",
"D  c #6DD1DB",
"F  c #5FDFE7",
"G  c #6BC8E1",
"H  c #7CC1E4",
"J  c #79C4EB",
"K  c #62DAE1",
"L  c #70DBE5",
"P  c #76C6F0",
"I  c #77CAF4",
"U  c #78CAF4",
"Y  c #77CEFB",
"T  c #79CEFB",
"R  c #6ADBF3",
"E  c #6FD7F9",
"W  c #6DDAF8",
"Q  c #73D2FA",
"!  c #7FD2FB",
"~  c #5FE4ED",
"^  c #5EE7F0",
"/  c #5DEBF5",
"(  c #62E1E9",
")  c #63E4F6",
"_  c #60E9F6",
"`  c #6DE1F8",
"'  c #848484",
"]  c #80868A",
"[  c #868B8F",
"{  c #8C8C8C",
"}  c #858D91",
"|  c #8D8F90",
" . c #8C9193",
".. c #819199",
"X. c #8C9499",
"o. c #8C999B",
"O. c #919191",
"+. c #90979C",
"@. c #95999D",
"#. c #9B9B9B",
"$. c #889BA5",
"%. c #939CA3",
"&. c #989DA0",
"*. c #84A4A6",
"=. c #84A7A9",
"-. c #82AAAD",
";. c #94A3AD",
":. c #9AA4AC",
">. c #9BA1A4",
",. c #87A6B5",
"<. c #8CA6B4",
"1. c #81ADB0",
"2. c #86ABBE",
"3. c #97ABB7",
"4. c #9CACB7",
"5. c #9FAFB9",
"6. c #91ABBB",
"7. c #91B1B7",
"8. c #A3A4A4",
"9. c #ABACAC",
"0. c #A8ADB1",
"q. c #AEB4B8",
"w. c #B6B6B6",
"e. c #B4B6B8",
"r. c #85ACC0",
"t. c #85B3CC",
"y. c #9CBAC4",
"u. c #80B7D3",
"i. c #87BFDE",
"p. c #A1B8C7",
"a. c #A5BBCA",
"s. c #A9BECC",
"d. c #ABBAC5",
"f. c #82C4CE",
"g. c #ADC3D3",
"h. c #A9CBDB",
"j. c #B9CAD7",
"k. c #B2CADB",
"l. c #B2C5D3",
"z. c #82C5E9",
"x. c #84D2FB",
"c. c #8CD5FC",
"v. c #88DDFA",
"b. c #93D6FC",
"n. c #97D8FC",
"m. c #9BD9FC",
"M. c #99D5F0",
"N. c #90D2E7",
"B. c #A9CFE6",
"V. c #B5CEE0",
"C. c #A7D2ED",
"Z. c #BAD2E4",
"A. c #BDD9ED",
"S. c #A4DCFC",
"D. c #ADDFFD",
"F. c #B5DFFA",
"G. c #85E9F8",
"H. c #ACE2FC",
"J. c #A5E1FC",
"K. c #B3E1FD",
"L. c #BDE4FD",
"P. c #C3C4C5",
"I. c #CCCDCD",
"U. c #C1C9D0",
"Y. c #CDCFD0",
"T. c #C6D1DA",
"R. c #D3D3D3",
"E. c #DADADA",
"W. c #CADDEA",
"Q. c #DBDEE0",
"!. c #DFE2E3",
"~. c #C3E1F7",
"^. c #C6E7FE",
"/. c #C8E7FE",
"(. c #C7E8FD",
"). c #CBE9FE",
"_. c #CFE4F4",
"`. c #DBEAF3",
"'. c #D4EDFE",
"]. c #DAEFFE",
"[. c #D3E4F0",
"{. c #DEF1FE",
"}. c #E6E7E7",
"|. c #E7E9EA",
" X c #EDF2F5",
".X c #E3F3FE",
"XX c #EAF6FE",
"oX c #EFF8FE",
"OX c #F4F4F4",
"+X c #F5F7F9",
"@X c #F4FAFE",
"#X c #FDFEFF",
"$X c white",
"%X c #FEFEFE",
"&X c #FDFDFD",
"*X c #FEFFFF",
/* pixels */
"O O O O O O O O O O O O O O O O O O O ' ' # ' ' { O.O.O.O.O.{ ' # # # # O.O.O.' O # O # # # O O O O O O O O O O O O O # # # O # ",
"# # + + O O O O O O O O O O O O O O # # # # # ' O.O.O.O.O.O.O.O.' # # # { O.O.O.O O O O O O O O O O O O O O O O O O O O O # # # ",
"# # # # # # O O O O O O O O O O O + # # # ' O.O.O.O.O.O.O.O.O.O.O.{ # O # O.O.O.' # O O O O O O O O O O O O O O O O O O O O # # ",
"O # # # # # # # O O # # # # # # ' ' { { O.O.O.O.O.O.O.| O.O.' ' O.{ ' O O O.O.O.O.O.O.O.{ ' ' # # O     # O O O O O O O O O O O ",
"O O # # # # # # # ' O.O.O.O.O.O.O.O.O.O.O.O.O.O.O.O.O.O.O.{ O O O O O O O { O.O.O.O.O.O.O.O.O.O.O.{ .   # # O O O O O O O O O O ",
"O O O # # # # # # ' O.O.O.O.O.O.O.O.O.O.O.O.O.O.O.O.O.O.O.O.O.# O O O O # { O.O.O.O.O.O.O.O.O.O.O.O.'   O # # # O O O O O O O O ",
"O O     # # # # # # ' { O.O.O.O.O.O.O.O.O.O.O.O.O.O.O.{ O.O.O.O.{ O O O { O.O.O.O.O.O.O.O.O.O.O.O.O.O.# O O # + # # O O O O O O ",
"O O   . # # O O O O O # # ' O.8.I.W.C.r.O.O.O.{ O.O.O.O.O.O.O.O.O.{ # O { O.O.O.O.O.O.O.O.O.O.O.O.#.q.l.B.t...' # # # # O O O O ",
"O # O O # # O O O O O O O # I.&X].^.F.Y ,.O.O.O.O.| O.O.O.O.O.O.O.O.O.' O ' ' { { O.O.O.O.O.#.I.OX&X&X'./.x.U <.O.{ # # # # # # ",
"# # O O # # O O O O O O # OX&X].^.^.x.Q f | O.O.O.| { # # ' { O.O.O.O.O.{ O # # + # # # ' { P.&X&XXX{.L.c.Q Q U O.O.' # # # # # ",
"# #     O # . O O O O O O >.L./.^.b.E / p O ' { ' # O O O O & O.O.O.O.O.O.O.O + # # # O # # { U./.(.L.x.Q _ ) Q %.O.# # # # # # ",
"# O     # #     O O O O O O & t.Y Y / ~ $ . O O O O O { w.T.M.M i.p.@.' O.O.# # # O O O O O O ' 3.M.! Q _ / / R X.' # # # # # # ",
"# # # # # { { O.{ + # # # # # # & 1 6 X     . O O #.E.&XXX(.S.Y T F.(.V.} & O O O O O O O O O O O # 7 0 y -.-.+.O.O O O O # # # ",
"# # ' { O.O.O.O.O.{ # # # # # # # #           # O O. X+X(.^.K.Y T c.(.(.l.# + O O O O O # ' # O O # O O O O { O.{ O O O O O O O ",
"O # O.O.O.O.O.O.O.O.# # O O + # # # # O O .     # # %.).(.^.(.x.Y Y m.H.f.# # O O O O # O.O.O.# { O.{ # O O # ' # O O O O O O O ",
"O O { O.O.O.O.O.O.O.{ # O O O O O O # # # # .   O # # ;.^.(.^.x.Y E ) ( 9 ' ' ' ' ' ' O.O.O.O.O.O.O.O.{ ' ' # # O O + # O O O O ",
". O # # { O.O.O.O.O.O.# O O O O O O O O O O O O O O O O g.^.S.W _ / ~ =.O.O.O.O.O.O.O.O.O.O.O.O.O.O.O.O.O.O.O.O.' O { O.. . . . ",
"  . # # # ' O.O.O.O.O.{ # O O O O O O O O . O O O O O O + L / / / K < # O.O.O.O.O.O.O.O.O.O.O.O.O.O.O.O.O.O.O.O.' # O.{         ",
"  # # # # # ' { O.O.O.O.{ O O O O O O O O O O O O O O O O @ 4 0 * O O O O ' O.O.O.O.O.O.O.O.O.O.O.O.O.O.O.O.O.{ O # O.'         ",
"O # # # # # # # ' { O.O.{ O O O O O O O O O O + X.%.%.& O O O O O O O O O O O ' O.O.&.P.E.Z.l.&.O.O.O.O.O.O.{ d o & O.#         ",
"O O O O O O O O O O O # # # O O O O O O O # E.&X.X^.^.^.6.O O O O O O O + + O . # w.&X&X.X^.^.~.@.O.O.O.' # q U x O '   .     O ",
"O O O O O O O O O O O # # # # + O O O O # }.&X.X'./.^.^.D.8 O O O O O + # # .   8.&X&X].^.K.K./.4.# O O , b U U : .   O O # # + ",
"O O O # O.O.# O # # # # # # # # # # # & E.&X]././.^.^.^.n.P - O O # + # .        X&X.X^.n.T T H.s.O O O } u.J 2 O O # # # # O O ",
"O O O O.O.O.O.# # # # # # # # + # ' :. X&X'.^./.^.^.^.F.T T A # ' # # #     . X.'.XX/.c.Y Y Y b.h.# # ' O.O.O.' O O O # # O O O ",
"# # O.O.{ ' O.O.# # # # 8.I.E.|.`.^.^.@X'.D.F.^.^.^.D.T Y Y W =.O.O.' + # # # d././.m.Y Y E / R f.O.O.O.O.O.O.O.' O     . O # O ",
"' O.O.{ O # O.O.{ # # # R.&X&X&X&X/.(./.c.Y T S.^.S.Y Q Q E _ D O.{ # # # # ' XX'.K.Y Y Y _ / / v O.O.O.O.O.O.O.O.O.{ O     . # ",
"O.O.{   ' O.O.O.O.O.' # O.E.&X&X'.^.^.c.Y Y T T E / / / / / / S # # # # # ' }.&X{.! Y Y ) / / / =.O.O.O.O.O.O.O.O.O.O.O.O     ' ",
"O.{ O   O.O.O.O.O.O.O.# ' O.E.XX/.(.n.Y Y Y Q ) / / / / ( S N 3 O # # # # 9.&X'.! Y Q _ / / / h ' { O.O.O.O.O.O.O.O.O.O.' O   O ",
"# # O O ' ' ' { ' ' # # O O O @.;.$.8 8 8 5 5 u 1.=.o.{ # O O O O O O O O O % q a e r r r 5 # O O O + { O.O.O.O.O.{ { ' # # # + ",
"# # # # # # # # # O # + O O O # # & O O O O O O { O.O.# O O O O O O O O O O   . O O O O O O O O O O O # ' O.O.O.' # # # # # # # ",
"# # # # # O O O # # ; # O O O O | O.O O O O O O O + + O O O O O O O O . O + . . O O O O O O O + ' ' O.O.' { O.' # # # # # # # # ",
"# # # { 8.I.j.Z.A.F.n.n ' ' O # {  .' O O O O O O O O O O O O O O O . & X.:., . # # ' ' ' { { O.O.O.O.O.O.O.O.O.{ ' # # # # # # ",
"# # # O.+X&X{.^.n.Q ! U O.O.' . # O.O.# O O O O O O O O O O O ; 0.A.{.oX&X&X.XK.H o.O.O.O.O.O.O.O.O.O.O.O.O.O.O.O.O.{ # # # # # ",
"' ' # Y.&XoX^.c.Q Q W G O.O.#   . { O.O.' O O O O O O + # + :.~./.oX&X&X&X@X'.m.Q A O.O.O.O.O.O.O.O.O.O.O.O.O.O.O.O.O.O.' ' ' ' ",
"O.O.' _.&X/.n.E / / v O.O.O.#     O ' O.O.O.# O O + # # # 0.^./.@X&X&X{./.^.L.x.T ) v  .O.O.O.O.O.O.O.O.O.O.O.O.O.O.O.O.O.O.O.O.",
"O.{ ' g.).H.Q / _ j O.O.O.O.#       # # { O.{ O O # + # ;.'.(./.@X@X/./.(.^.b.Y Q / ^ o.O.O.O.O.O.O.O.O.O.O.O.O.O.O.O.O.O.O.O.O.",
"+ O O O ;.a a u o.| O.{ { # # #     O O O O O O O O O ' @X&X^.^.'././.L.S.c.Y Y W / / =.O.O.O.O.O.O.O.O.O.O.O.O.O.O.O.O.O.O.' # ",
"# # O O O O O # { %.{ O O O O O O . O O O O O O O O O P.&XXX^.^./.~.m.T T Y Q E / / ~ ; # ' # + # # + # ' O.O.O.O.O.O.O.{ # # # ",
"# # # # O O O 8 n Y z O O O O O O O O O O O O O O O O P.&X'.^.^.^.x.Y Y Q / / / / ~ 7 O O O O O O O O O O O ' O.O.O.O.# # # # # ",
"# # # # # @ ; I Y Y c O O O O O  .Z.~.p.O O O ' ' # O @.XX/.^.^.m.Q Y Q / / / B y # O O O # ' ' + O O O O O O { O.O.' # # # # # ",
"# # # # # # # $.r.%.O.O.# O O } ^.^.^.S.1 & O.O.O.O.' # } 4.4.,.d d e 0 5 > + # O O O # { O.O.O.O.{ & O O O + # ' # # # # # # # ",
"# # # # # # + ' O.O.O.O.O.# O a.^.^.n.Y 9 O.O.{ { O.O.{ O O O O O O o   O O O O O # { O.O.O.O.O.O.O.O.O.' # # # # # # # # # # # ",
"# # # # # # # # # ' | O.O.| # s.^.x.Y Y X.O.' # # # O.O.# O O O O .     O O # ' O.O.O.O.O.O.O.O.O.O.O.O.O.O.{ # # # # # # # # # ",
"# # + # # # # # # # # { O.O.{ & M Y Y I O.{ # # # # ' O.' O O O .     O ' O.O.O.O.O.O.O.O.8.9.0.4.7.-.o.O.O.O.{ # # # # # # # # ",
"O     . # # # # # # # # & O.O.{ % M Y M # # # # # # # ' # # # # O + ' O.O.O.O.O.O.O.O.9.|.&X&XoX).(.G._ j O.O.O.{ ' # O     . O ",
"        O # # # # # # # # # { O.] w Y l O # # # # # # # # O # # # { O.O.O.O.O.O.O.O.P.&X&X&X.X^.(.(.G./ / -.O.O.O.O.O.{ # # O . ",
"#       O # O . O O # O O O O ] & @ I 2 O O O # # # # # O O O # O.O.O.O.O.O.O.O.8.}.&X&X&X.X^.^.^.c.) _ / S O.O.O.O.O.O.O.O.O.O.",
"O.O . O O O O O O O O O O O O O O O % O O O O O O O O O O O O ' O.O.#.#.8.0.d.Z.^.].@X&X@X(.L.H.x.U Q _ / _ k O.O.O.O.O.O.O.O.O.",
"# O O O O O O O O O O O O O O O #.>.O O O O O O O O O O O ; [.&X&X&X&X&X&X&X@X'./././.).D.x.T Y Q Y Y E / / / V { { { { ' ' ' ' ",
"O O O O O O O O O O O O O O ' E.&X&X6.O O O O O O O O O O O X.`.&X&X&X&X&X&X&X&XXX/./.S.T Y Y Y Y Y W _ / / / K O O O + # # # & ",
"# # O O O O O O O O O O O #.OX&X&X{.z.O O O O O O . O O O O O } ^./.'.@X&X&X&X&X&X@X(.T Y Y Y Y Q _ / / _ S N 7 O O O O O O & # ",
"{ # # # O O O O O O O # O.+X&XoX/.m.Y x @ O O O O O O O O O O O 4.^././.{.&X&X&X&X&XXXY Y Y Y R C h 5 - O O O O O O O O # { O.O.",
"O.O.{ ' O.{ # O O # O.O.E.&XXX/.K.T Y Y R r + + + # # # O O O O O k././.(.b.m.L.L.H.v.Q Y Y z @ + # # # + + O O O O O # O.O.O.O.",
"O.O.' ' O.O.O.' { O.O.{ OX&X).^.x.Y Y Q / ~ ; # # # # # # O O O O ] ~./.^.c.Q E ) / / / ) D O O # # # # # # # # # # ' O.O.O.O.O.",
"' ' # # # { O.O.O.O.' O +X&X).S.T Y Q _ ~ 7 # # # # # # O O O O O O o.~.^.^.) / / / / / S - O O # # # # # # # # O.O.O.O.O.O.O.O.",
"# # # # # # # ' ' # O O 9.`.S.Y T Q E / p O O O O O O O O O O O O O O & y.N./ / / ~ C r O O O O # # # # # # # { O.O.O.{ { ' # # ",
"# # # # # # # # + # O O O O O , w U R K + O O O O O O O O O O O O O O ' O.O.O.O.O.O.O.O.O.O.O.' # # # # # # O O # # O O # # # # ",
"# # # # # # # # # # # # O O O O O : ^ 0 O O O O O O O O O O O O O O O # O.O.O.O.O.O.O.O.O.O.O.O.' # O O O O O O O O O O # # # # ",
"# # # # # # + # # # # # O O O O O O > O O O O O O O O O O O O O O O O # # ' { O.O.O.O.O.O.O.' ' O O O O O O O O O O O O # # # # ",
"# # # # O # O O O O O O O O O O O O O O O O O O # O O O O O O O + + # # # # # + ' O.O.O.O.' # # O O O O O O O O O O O O # # # # ",
"O O O O O O O O O O O O O O O O O O O O O # { O.O.O.' # # # # # # # # # # # # # # # # # O O O O O O O O O O O O O O O # # O O O ",
"O O O O O O O O O O O O O O O O O     # O.O.O.O.O.O.O.O.{ # # # # # # # # # # # # # # # O O O O O O O O O O O O O O # # O O O O ",
"O O O O O O O O O O O O O O O O   . O.O.O.O.O.O.O.O.O.O.O.O.O.O.' # # # # # # # # # # # O O O O O O O O O O O O O # # O O O O O ",
"O O O O O O . O O O O O O O O O   O O.O.O.O.O.O.O.O.O.O.O.O.O.O.' # # # # # # # # # # # # O O O O O O O O O O O # # # # O O O O "
};
