/* XPM */
static char *_2316d74cb9749dda8855d65c26ae07ciR9pDyo3oLrTK6C2[] = {
/* columns rows colors chars-per-pixel */
"64 64 256 2 ",
"   c black",
".  c #010101",
"X  c #020202",
"o  c gray1",
"O  c #040404",
"+  c gray2",
"@  c #060606",
"#  c #070707",
"$  c gray3",
"%  c #090909",
"&  c gray4",
"*  c #0B0B0B",
"=  c #0C0C0C",
"-  c gray5",
";  c #0E0E0E",
":  c gray6",
">  c #101010",
",  c #111111",
"<  c gray7",
"1  c #131313",
"2  c gray8",
"3  c #161616",
"4  c gray9",
"5  c #181818",
"6  c #191919",
"7  c gray10",
"8  c #1B1B1B",
"9  c gray11",
"0  c #1D1D1D",
"q  c #1E1E1E",
"w  c gray12",
"e  c #202020",
"r  c gray13",
"t  c #222222",
"y  c #232323",
"u  c gray14",
"i  c #252525",
"p  c gray15",
"a  c #272727",
"s  c #282828",
"d  c gray16",
"f  c #2A2A2A",
"g  c gray17",
"h  c #2C2C2C",
"j  c #2D2D2D",
"k  c gray18",
"l  c #2F2F2F",
"z  c gray19",
"x  c #313131",
"c  c #323232",
"v  c gray20",
"b  c #343434",
"n  c #353535",
"m  c gray21",
"M  c #373737",
"N  c gray22",
"B  c #393939",
"V  c #3A3A3A",
"C  c gray23",
"Z  c #3C3C3C",
"A  c gray24",
"S  c #3E3E3E",
"D  c #3F3F3F",
"F  c gray25",
"G  c #414141",
"H  c gray26",
"J  c #434343",
"K  c #444444",
"L  c gray27",
"P  c #464646",
"I  c gray28",
"U  c #484848",
"Y  c #494949",
"T  c gray29",
"R  c #4B4B4B",
"E  c #4C4C4C",
"W  c gray30",
"Q  c #4E4E4E",
"!  c gray31",
"~  c #505050",
"^  c #515151",
"/  c gray32",
"(  c #535353",
")  c gray33",
"_  c #555555",
"`  c #565656",
"'  c gray34",
"]  c #585858",
"[  c gray35",
"{  c #5A5A5A",
"}  c #5B5B5B",
"|  c gray36",
" . c #5D5D5D",
".. c gray37",
"X. c #5F5F5F",
"o. c #606060",
"O. c gray38",
"+. c #626262",
"@. c gray39",
"#. c #646464",
"$. c #656565",
"%. c gray40",
"&. c #676767",
"*. c #686868",
"=. c DimGray",
"-. c #6A6A6A",
";. c gray42",
":. c #6C6C6C",
">. c #6D6D6D",
",. c gray43",
"<. c #6F6F6F",
"1. c gray44",
"2. c #717171",
"3. c #727272",
"4. c gray45",
"5. c #747474",
"6. c gray46",
"7. c #767676",
"8. c #777777",
"9. c gray47",
"0. c #797979",
"q. c gray48",
"w. c #7B7B7B",
"e. c #7C7C7C",
"r. c gray49",
"t. c #7E7E7E",
"y. c gray50",
"u. c #808080",
"i. c #818181",
"p. c gray51",
"a. c #838383",
"s. c #848484",
"d. c gray52",
"f. c #868686",
"g. c gray53",
"h. c #888888",
"j. c #898989",
"k. c gray54",
"l. c #8B8B8B",
"z. c gray55",
"x. c #8D8D8D",
"c. c #8E8E8E",
"v. c gray56",
"b. c #909090",
"n. c gray57",
"m. c #929292",
"M. c #939393",
"N. c gray58",
"B. c #959595",
"V. c gray59",
"C. c #979797",
"Z. c #989898",
"A. c gray60",
"S. c #9A9A9A",
"D. c #9B9B9B",
"F. c gray61",
"G. c #9D9D9D",
"H. c gray62",
"J. c #9F9F9F",
"K. c #A0A0A0",
"L. c gray63",
"P. c #A2A2A2",
"I. c gray64",
"U. c #A4A4A4",
"Y. c #A5A5A5",
"T. c gray65",
"R. c #A7A7A7",
"E. c gray66",
"W. c #A9A9A9",
"Q. c #AAAAAA",
"!. c gray67",
"~. c #ACACAC",
"^. c gray68",
"/. c #AEAEAE",
"(. c #AFAFAF",
"). c gray69",
"_. c #B1B1B1",
"`. c #B2B2B2",
"'. c gray70",
"]. c #B4B4B4",
"[. c gray71",
"{. c #B6B6B6",
"}. c #B7B7B7",
"|. c gray73",
" X c #BBBBBB",
".X c gray74",
"XX c gray",
"oX c gray75",
"OX c #C0C0C0",
"+X c #C1C1C1",
"@X c gray76",
"#X c gray77",
"$X c #C6C6C6",
"%X c gray78",
"&X c #C8C8C8",
"*X c gray79",
"=X c #CACACA",
"-X c gray80",
";X c #CDCDCD",
":X c #CECECE",
">X c gray81",
",X c #D0D0D0",
"<X c gray82",
"1X c #D2D2D2",
"2X c gray83",
"3X c black",
"4X c black",
"5X c black",
"6X c black",
"7X c black",
"8X c black",
"9X c black",
"0X c black",
"qX c black",
"wX c black",
"eX c black",
"rX c black",
"tX c black",
"yX c black",
"uX c black",
"iX c black",
"pX c black",
"aX c black",
"sX c black",
"dX c black",
"fX c black",
"gX c black",
"hX c black",
"jX c black",
"kX c black",
"lX c black",
"zX c black",
"xX c black",
"cX c black",
"vX c black",
"bX c black",
"nX c black",
"mX c black",
"MX c black",
"NX c black",
"BX c black",
"VX c black",
"CX c black",
"ZX c black",
"AX c black",
"SX c black",
"DX c black",
"FX c black",
"GX c black",
"HX c black",
"JX c black",
"KX c black",
"LX c black",
"PX c black",
"IX c black",
"UX c black",
/* pixels */
"4 y k B B M m m m m m C A Z m m m m n x f i y i i p a d s a p p z m N A A A A A A A A Z N m v v v c j s p p s k b m M V B k y 4 ",
"y v G Q ^ ! Q W E W W ^ { | ^ ! ^ / / / E K c M B B B V B B B B L / / / ' } | | | | | | } ` ^ W E E E R K A D T Q / / / ~ K v y ",
"d S ( $.%.$.$.$.$.$.$.$.*.-.$.$.$.$.&.;.O.] G J U E E E E E E E U $.>.>.>.<.7.q.q.q.q.q.q.q.5.,.=.$.$.$.$.+.[ X.&.>.>.>.*.( S d ",
"b Q &.0.y.y.y.y.y.y.y.y.y.y.y.y.y.t.8.3.1.] ^ ` ] X.X.X.X.@.0.,.] &.u.g.h.h.h.x.B.Z.Z.Z.Z.Z.Z.C.v.d.y.y.y.y.5.2.0.h.h.h.p.*.Q b ",
"m / &.y.d.d.d.f.d.d.d.d.d.d.d.d.t.9.8.7.O._ ] | o.#.#.<.h.G.K.A.y.| y.f.l.v.v.v.b.Z.J.K.K.K.K.K.K.H.n.f.d.a.4.8.8.p.c.v.h.>./ m ",
"n Q $.y.d.d.d.d.d.d.d.d.d.d.d.w.8.8.8.#._ ` |  .#.5.b.K.K.K.D.n.v.3.+.d.f.f.k.x.v.v.n.C.G.K.K.K.K.K.D.x.d.%.[ -.6.8.9.y.i.:./ m ",
"v E $.y.d.d.d.d.d.d.d.d.d.d.e.8.8.6.+._ ` } | ,.n.K.K.J.Z.n.v.v.v.g.@.,.d.d.d.d.f.h.g.f.k.v.m.N.V.V.b.x.%._ ` _ ` @.5.8.3.o.R v ",
"c E $.y.d.d.d.d.d.f.d.d.d.e.8.8.,.{ _ _ {  .y.J.K.H.C.b.v.v.c.k.f.d.0._ <.d.d.d.d.i.0.8.9.d.s.0.q.r.t.=._ ' | { ` _ ] $.>.{ L z ",
"k I o.e.d.d.d.d.d.d.d.a.q.8.6.+._ _ ` } o.z.K.K.Z.b.v.v.c.j.d.d.d.d.4._ _ -.s.d.s.q.9.0.r.d.a.8.8.7.O._ ] | |  .| [ _ _ / Y A h ",
"p F { 2.8.q.t.s.d.d.u.9.8.4.{ _ _ ] | O.m.K.H.M.v.v.v.l.d.d.d.d.d.p.} _ [ _ o.y.d.d.d.d.d.d.r.8.6..._ [ | | O.#.X.| } ] ^ G z t ",
"e z P %.6.8.8.9.e.q.8.8.4.[ _ ` } | O.M.K.G.n.v.v.v.h.d.t.s.d.d.a.| _ ] | { _ ] <.a.d.f.p.w.8.2.} _ { |  .O.*.7.3.+._ ` ` J x e ",
"t x G ^ X.<.7.8.8.8.8.4.[ _ [ |  .+.j.K.G.n.v.v.v.i.i.d.w.q.d.d.6._ _ | | | } ` _ ] =.y.4.-.o.` ` } | ..3.s.V.Z.N.v.t.] / P n y ",
"y n L ) _ ] *.7.8.8.5.{ _ { | o.#.5.K.J.n.v.v.v.i.9.s.d.0.8.0.9.#._ ] | o.@. .| [ _ _ _ _ _ _ [ |  .:.h.K.K.K.K.K.G.M.9.^ K N u ",
"s C Y ] } ' _ +.8.4.{ _ {  .+.#.+.2.,.{ I F H G Z S F D Z Z Z Z n b n m M N N m m n v M G E ( | @.y.v.v.Z.A.Z.Z.G.K.J.v./ J N d ",
"d A ^ | } | { ` } ' ` {  .@.%.o.U n f d a p p p p p p p p p p p p p p p p p p p p p p a d f n U 8.v.v.v.v.v.v.v.v.A.K.F...H n s ",
"d S *.g.6.&.} } ] ] }  .#.%...J j d i r w w w w w w w w w w w w w w w w w w w w w w w w r i d j J 8.v.v.v.v.v.v.v.v.H.K.-.G n p ",
"d U 8.Z.m.v.c.d.8.1.=. .+.+.D g s r w w q 5 4 4 4 4 4 4 4 4 4 4 4 4 4 4 4 4 4 4 4 4 5 q w w r s g F w.g.f.h.z.v.v.v.G.K.+.G n i ",
"f ( q.B.v.v.v.v.c.w.8.3.} P f s r w 8 = .                                             . = 8 w r s f Y p.d.d.d.f.x.v.G.K.{ F n i ",
"z ] q.v.v.v.v.v.v.a.8.8.X.j d r w 5 X                                                     X 5 w l B C *.a.d.d.d.f.c.J.K.) G n i ",
"m } 0.j.v.v.v.v.c.t.8.8.K d u w 8 o                 .             .                         o A -.-.-.#.<.u.d.d.d.h.J.Z.^ H n a ",
"V | 5.h.v.v.v.j.0.8.8.8.C d e w =       .         . < -         % < *                         f <.1.q.i.,.2.a.d.d.d.j.e.^ J n k ",
"A | <.h.v.x.g.a.9.8.8.8.Z d w w $           O &     , <     X ; 1 1 $             .           e y.d.Q.D.,.,.1.8.q.t.u.,.^ J M m ",
"A ] >.h.l.d.d.d.s.w.8.8.Z d w w $         O < 1 $   . X   . < 1 , +         + - 1 < @         e y.d.Q.G.,.,.,.,.,.5.8.o.^ L P N ",
"A ) >.a.a.a.d.d.d.u.r.r.Z d w w $       O < 1 1 < & * - : , 1 1 1 > - & $ > 1 1 1 1 < +       e y.d.Q.L.8.6.4.1.1.8.6.` / R ^ Z ",
"C / -.y.u.e.d.a.q.e.d.s.B d w w $     o < 1 1 1 1 1 1 1 1 1 1 1 1 1 1 1 1 1 1 1 1 1 1 < o     e y.d.Q.H.8.8.8.8.8.8.&._ ) ..) A ",
"N ^ $.y.t.8.y.t.9.s.d.9.b d w w $   o , 1 1 1 1 1 1 1 1 1 1 1 1 1 1 1 1 1 1 1 1 1 1 1 1 , o   e y.d.Q.D.6.8.8.8.8.5.' _ ..>.[ A ",
"m Q $.y.r.8.8.8.i.d.p...b d w t & X , 1 1 1 1 1 1 1 1 1 1 1 1 1 1 1 1 1 1 1 1 1 1 1 1 1 1 , X e y.d.Q.D.,.5.8.8.8.+._ ] 7.2.| Z ",
"m E $.y.w.8.9.i.d.s.:._ b d s V c f k k k k k k k k k k k k k k k k k k k k k k k k k k k k f N y.d.Q.D.<.,.6.8.1._ _ O.g.8.| B ",
"b E $.9.8.9.p.d.s.8.[ _ b l B V  .y.y.y.y.y.y.y.y.y.y.y.y.y.y.y.y.y.y.y.y.y.y.y.y.y.y.y.y.y.y.y.y.d.Q.D.,.<.8.7.} _ [ 0.x.q.{ m ",
"v E @.2.8.p.d.a.0.+._ ` V V V o.h.h.h.h.h.h.h.g.d.d.p.y.y.u.i.i.i.i.i.i.i.i.i.y.y.y.p.a.a.d.d.d.d.z.Q.G.3.6.8.%._ ' X.x.B.q._ m ",
"v E +.8.s.d.a.0.:._ _ [ C V <.Q.Q.Q.Q.Q.Q.Q.Q.Q.Q.Q.Q.Q.Q.Q.Q.Q.Q.Q.Q.Q.Q.Q.Q.Q.Q.Q.Q.Q.Q.Q.Q.Q.Q.Q.Q.G.8.8.1.` ` | 5.C.Z.8.^ v ",
"v E #.y.d.p.0.5.] _ ` | R 2.R.R.U.I.I.I.I.I.L.L.L.L.A.B.V.V.Z.Z.F.J.K.J.F.Z.Z.Z.Z.Z.B.B.V.G.G.G.G.H.G.b.8.3.| ` } X.x.J.Z.<.W v ",
"v E $.y.r.8.7. ._ _ } @.B.K.H.m.v.v.v.v.c.g.d.d.d.i.' ` | ..&.c.Z.v.v.v.v.x.p.5.@.#.O.' _ #.8.8.8.8.8.3.+.` ' | X.4.H.K.n.&.E v ",
"z L #.e.8.8.$._ _ [ %.Z.K.G.n.v.v.v.v.x.f.d.d.d.d.%._ }  .<.A.K.F.z.l.z.c.v.v.v.l.;.X.+.[ _ ..,.3.>.O.` ' }  .o.*.N.K.D.p.$.E v ",
"z T  .3.8.;._ _ ' =.A.K.D.b.v.v.v.v.z.d.d.d.d.d.7._ [ | 0.H.K.A.h.d.d.d.d.f.j.z.v.v.:.} o...` _ _ ' [ | | X.@.-.N.K.G.j.y.$.E x ",
"v R { 2.2.' _ ` =.D.K.S.b.v.v.v.v.k.d.d.d.d.d.u.[ '  .s.K.K.Z.v.f.d.d.d.d.d.d.d.j.c.u.%.[ | | } | | ..O.#.#.>.C.K.F.j.d.y.$.R k ",
"_ e.P.#X-X-X-X-X-X-X-X-X-X-X-X-X-X-X;X:X:X:X:X:X<X2X2X2X2X2X1X>X:X:X:X>X2X2X2X,X;X;X;X;X:X:X;X;X-X-X-X-X-X-X-X-X;X;X;X;X#XG.6.F ",
"( 9.S.|.OXOXOXOXOXOXOXOXOXOXOXOXOXOX+X@X@X@X@X%X=X=X=X=X=X=X=X*X$X@X@X@X&X=X=X*XOXOXOXOXOXOXOXOXOXOXOXOXOXOXOXOXOXOXOXOX}.M.X.k ",
"^ 5.M.(.{.[.'.'.'.'.'.'.'.'.'.'.].{.{.{.}.|.XXOXOXOXOXOXOXOXOXOXOX.X}.[.}.OXoXOX X[.'.'.'.'.'.'.'.'.`.`.'.'.'.'.'.'.'.'.Q.r.W k ",
"Q <.z.Y.!.!.Q.W.E.E.Q.!.!.!.!.~./.).`.].{.{.{.{.{.{.{.{.{.[.~.(.].'.~.R.R.[.{.{.{.{.{.].`.)./.~.Q.Q.K.L.W.R.R.R.R.R.R.R.F.1.E k ",
"Q >.l.P.E.E.E.E.E./.'.'.'.'.'.'.'.'.`.~.E.P.n.d.r.w.w.w.w.8.4.4.4.4.4.4.4.0.w.r.d.n.P.E.~.`.'.'.'.(.K.G.R.R.Y.U.U.U.U.U.A.1.E j ",
"Q >.j.L.E.E.E.E.E.!.'.'.'.'.'.'.!.S.c.w...I H H F S S S S S S S S S S S S S S F H H I ..w.c.S.!.'.'.~.G.U.E.E.R.T.U.U.U.A.1.E j ",
"Q >.s.A.E.E.E.E.E.E.!.).'.'.(.A.z.r.` H D B b x x x x x x x x x x x x x x x x x x b B D H ` r.z.A.(.`.R.Y.Y.E.E.E.E.T.Y.A.1.E j ",
"Q >.s.S.E.R.U.U.U.Y.Y.T.W.P.c.j.+.H D m x x x x g i i i i i i i i i i i i i i g x x x x m D H +.j.v.T.'.'.).^.!.E.E.E.E.D.2.E j ",
"Q ,.h.K.E.R.U.U.U.U.U.I.v.u.5.R H N x x l 0 = X                                 X = 0 l x x N H E t.z.F.`.'.'.'.'.).W.E.F.4.W k ",
"Q ,.h.J.E.E.T.U.U.U.P.j.u.;.K D b x z 9 O                                             O 9 z x b D L 3.z.B.).'.'.'.'.~.E.F.4.Q k ",
"Q ,.s.Z.R.E.J.L.U.P.g.u.=.H Z c x s &                               .                     & s x c Z J 1.z.N._.'.'.`.E.E.F.4.Q k ",
"Q ,.s.A.R.E.H.G.I.z.i.3.J Z x x e X                                                         X e x x Z J q.z.Z.'.'./.E.E.F.4.Q k ",
"Q <.k.P.Q./._.`.K.a.u.T D c x 6                                                                 6 x c D R h.z.Y.`.T.U.U.A.2.W k ",
"Q ,.x.Q.'.'.'.).v.h.{ G v x w                                                                     w x v G { k.v.^.U.U.U.A.1.E k ",
"Q <.m.^.'.'.'.H.z.7.H M x s X                             $                   @                   X s x M H 2.j.N.U.U.U.A.1.E j ",
"Q >.v.^.'.'./.x.j.E A x z %                           o 1 6 -               ; 6 $                   % z x A T y.i.K.R.R.A.1.E j ",
"Q ,.l.U.).'.T.l.*.H v x 5             . %           # 4 6 6 6 ;         . , 6 6 5 O       #           5 x v H *.g.Z.`.`.B.:.Y h ",
"Q <.l.P.E.!.Q.z._ D x g .         . * 4 6 ,       - 6 6 6 6 6 6 ;     . 1 6 6 6 6 3 o   o 5 :         o j x D _ g.H.'.).m.;.U g ",
"Q <.l.P.E.E.L.l.) S x i       . * 4 6 6 6 6 : # 1 6 6 6 6 6 6 6 6 : + 2 6 6 6 6 6 6 4 < 4 6 6 > O % < 6 g x S ( t.K.'.!.m.;.U g ",
"Q <.l.P.E.E.J.a.( S x i   . * 4 6 6 6 6 6 6 6 6 6 6 6 6 6 6 6 6 6 6 6 6 6 6 6 6 6 6 6 6 6 6 6 6 6 6 6 6 g x S ~ w.L.'.T.m.;.U g ",
"Q >.h.J.Y.Y.D.u.^ S x i & 3 6 6 6 6 6 6 6 6 6 6 6 6 6 8 q q q 9 6 6 6 6 0 t r 6 6 7 q 0 6 6 6 6 6 6 6 6 g x S ^ e.S.~.H.M.;.U h ",
"Q >.h.J.Y.Y.D.u.^ S x g 6 6 6 6 6 6 6 6 6 6 6 e f w 6 6 t j j j s w 6 6 d j f 7 6 p j j e 6 6 6 6 6 6 6 g x S ^ y.V.H.L.D.3.W k ",
"Q >.h.I.'.`.H.u./ S x g 6 6 7 8 6 6 6 6 6 0 6 9 j j u 6 6 0 h j j j g d k j 9 6 e j j j h 9 6 6 6 r 6 6 g x S ^ u.D.R.E.F.2.E j ",
"Q >.j.~.'.'.E.p./ S x g 6 9 g d 6 6 6 w d h 7 6 d j j s 8 6 d j j j j j j g 6 9 h j j j j d 6 6 0 j a 7 g x S / i.S.T.R.F.3.E j ",
"R =.k.U.Y.Y.L.s.^ S x g e h j j i w s j j j p w g j j j h d j j j j j j j k d g j j j j j j p w f j j f h x S / u.M.V.V.z.=.T h ",
"Z ' <.i.r.p.i.-.E S x l j j j j j j j j j j j j j j j j j j j j j j j j j j j j j j j j j j j j j j j j z x S E -.i.f.w.1.^ N t ",
"k H / ] +.%.o.~ L S x z j j j j j j j j j j j j j j j j j j j j j j j j j j j j j j j j j j j j j j j j z x S L ~ o.%.%.] A d 5 ",
"w h v V K K F n S S x z j j j j j j j j j j j j j j j j j j j j j j j j j j j j j j j j j j j j h j j j z x S S n F K K A f 8 > "
};
