/* XPM */
static char *a0db5fb13e6f4d1eb6a069bec2a44af5Xw2JVf0U6N78ikIA[] = {
/* columns rows colors chars-per-pixel */
"64 64 170 2 ",
"   c #39311E",
".  c #3E3421",
"X  c #3E3F24",
"o  c #412D1F",
"O  c #442F20",
"+  c #443322",
"@  c #4B3423",
"#  c #433823",
"$  c #493D26",
"%  c #4C3728",
"&  c #4C3F28",
"*  c #513927",
"=  c #563C29",
"-  c #593F2B",
";  c #4D3C30",
":  c #3F4126",
">  c #3A4827",
",  c #3E4B29",
"<  c #414427",
"1  c #444528",
"2  c #4E4029",
"3  c #424D2A",
"4  c #4A4B2B",
"5  c #5D412D",
"6  c #52452C",
"7  c #44502C",
"8  c #4B532E",
"9  c #454436",
"0  c #49433F",
"q  c #5D4431",
"w  c #56473B",
"e  c #584A3F",
"r  c #4E5530",
"t  c #4E5C33",
"y  c #505630",
"u  c #595D36",
"i  c #62442F",
"p  c #674731",
"a  c #684731",
"s  c #664932",
"d  c #6C4B33",
"f  c #6D4E38",
"g  c #714E36",
"h  c #645134",
"j  c #6D513D",
"k  c #735137",
"l  c #755238",
"z  c #7A553A",
"x  c #7E593D",
"c  c #456232",
"v  c #4C6435",
"b  c #4A6936",
"n  c #50733A",
"m  c #54783D",
"M  c #4E4741",
"N  c #544C47",
"B  c #5E4F41",
"V  c #544D48",
"C  c #5F5045",
"Z  c #57504A",
"A  c #5B544E",
"S  c #5D5651",
"D  c #665346",
"F  c #695545",
"G  c #64554A",
"H  c #6D5A4C",
"J  c #745641",
"K  c #765944",
"L  c #7C5C43",
"P  c #635B54",
"I  c #6B5E54",
"U  c #645D58",
"Y  c #577C40",
"T  c #597E41",
"R  c #74604F",
"E  c #7B614C",
"W  c #67605B",
"Q  c #6A615B",
"!  c #766253",
"~  c #7B6556",
"^  c #776659",
"/  c #7C6758",
"(  c #74685F",
")  c #7C6A5D",
"_  c #766A61",
"`  c #7C6F65",
"'  c #7F7268",
"]  c #805B3E",
"[  c #855E40",
"{  c #885F42",
"}  c #876042",
"|  c #8E6545",
" . c #82634B",
".. c #8D6A4F",
"X. c #906747",
"o. c #926847",
"O. c #956A49",
"+. c #9A6E4B",
"@. c #9E714E",
"#. c #816753",
"$. c #856954",
"%. c #826C5B",
"&. c #8A6E58",
"*. c #8C725F",
"=. c #A1734F",
"-. c #A47651",
";. c #A77853",
":. c #AE7D56",
">. c #867161",
",. c #8C7766",
"<. c #82756B",
"1. c #88776A",
"2. c #86786D",
"3. c #88786D",
"4. c #837A73",
"5. c #8A7E75",
"6. c #5A873C",
"7. c #5C893E",
"8. c #5D8444",
"9. c #5F8B41",
"0. c #628E44",
"q. c #618748",
"w. c #648B4A",
"e. c #649146",
"r. c #669249",
"t. c #69964C",
"y. c #6B984D",
"u. c #6B9451",
"i. c #6E9B51",
"p. c #729E54",
"a. c #769D5A",
"s. c #799B5C",
"d. c #74A156",
"f. c #76A259",
"g. c #79A55B",
"h. c #7CA95E",
"j. c #7FA362",
"k. c #7FAC61",
"l. c #7EAA60",
"z. c #8B8078",
"x. c #80A760",
"c. c #82A963",
"v. c #80A961",
"b. c #80AD63",
"n. c #80AD63",
"m. c #81AE63",
"M. c #83AD65",
"N. c #85AF66",
"B. c #85AE66",
"V. c #81AE63",
"C. c #87AF68",
"Z. c #89AA6A",
"A. c #86B067",
"S. c #87B168",
"D. c #8AB26A",
"F. c #8BB26C",
"G. c #8BB16D",
"H. c #8CB36D",
"J. c #8CB16D",
"K. c #8DB46E",
"L. c #8FB46F",
"P. c #8CB06B",
"I. c #90B56F",
"U. c #92B672",
"Y. c #95B774",
"T. c #93B572",
"R. c #96B875",
"E. c #98B977",
"W. c #99BA77",
"Q. c #99BA78",
/* pixels */
"l.m.m.m.m.m.m.m.U.Y.t.t.y.f.v.W.Q.Q.Q.N.e.6.6.e.k.m.y.t.g.m.m.y.y.y.y.y.y.p.g.f.i.f.H.W.R.f.t.y.y.y.y.y.t.y.y.y.y.y.h.t.t.y.y.y.",
"d.m.h.g.f.m.m.m.J.U.p.t.t.t.t.x.E.E.Q.g.6.6.9.6.r.k.t.t.m.m.m.d.t.y.y.y.y.y.y.t.y.y.W.W.f.y.y.y.y.y.y.y.0.e.y.y.t.6.e.t.t.y.y.y.",
"y.i.7.6.6.e.F.J.W.N.m.m.l.f.t.e.6.7.9.r.6.7.r.7.6.d.t.y.m.m.F.t.6.g.v.v.d.t.y.t.p.J.v.p.t.y.d.g.h.h.t.t.6.6.t.y.t.6.7.t.t.y.y.y.",
"y.y.7.7.6.6.p.Q.Q.J.m.m.m.m.y.e.7.7.7.7.6.6.T m 6.e.e.y.g.h.Y.0.6.g.W.Y.A.f.y.y.J.Q.y.y.t.y.m.m.h.h.t.e.6.6.e.y.9.6.7.t.t.y.y.y.",
"y.y.i.p.t.6.e.x.W.D.m.m.C.F.m.h.h.g.t.y.8.m m m m 6.6.6.9.y.D.0.6.f.m.D.S.y.y.i.N.Y.h.y.y.y.l.g.y.y.y.g.y.e.p.6.6.6.0.y.y.y.y.y.",
"d.h.Y.Q.J.r.r.w.N.N.m.m.W.W.b.g.k.h.t.9.m m c m m f.0.6.9.p.l.r.6.e.h.l.y.y.y.h.I.I.m.g.y.y.g.h.t.8.y.t.y.y.r.6.6.y.y.y.y.y.y.y.",
"8.g.b.b.b.w.m m q.b.m.A.Q.Q.p.y.g.k.i.m m c   v m C.Y.U.h.f.m m 6.6.6.y.y.y.F.W.Q.L.b.b.g.g.v.l.m m 8.r.y.y.e.6.y.y.y.y.p.h.d.9.",
"m m r.a.q.m n n m u.g.p.p.p.y.y.g.A.f.m b O O 3 m a.Y.F.h.T m m m 7.6.6.e.y.D.A.N.L.C.v.N.E.Z.q.m n m m w.i.y.y.y.y.y.y.t.8.n m ",
"c m m m m n 7 7 n m r.y.y.y.y.i.m.b.p.m r O + X m 8.m.v.q.m c m T D.x.r.r.y.d.k.m.k.U.Q.E.Q.x.m n 3 b m m m 0.y.y.y.0.m m m m c ",
"  3 b m b 7 s s t m 8.y.p.y.y.g.b.b.i.Y y @ @ @ n m q.w.m n 6 b m N.J.C.i.y.y.y.f.k.F.Q.E.T.Y m , 6 2 7 b m m m w.w.m m n c 1 . ",
"* = 2 8 2 * w 0 9 n m w.F.F.K.S.b.b.w.m 4 = - % 3 n m m n > * v m g.b.b.f.8.T y.y.p.S.Q.E.q.m c O * 5 5 2 c m m m m m c : o + @ ",
"d i 5 5 q V N N M 4 n m w.s.s.l.b.l.8.m & = p p * 3 n m , o @ u m p.b.u.m m m T t.y.f.U.s.m n $ * = s 5 5 * # c m m c . O 5 i i ",
"@.O.d d F W P A e s 7 n Y Y m m f.u.m b - f | | } s 3 c @ @ + 8 m u.w.m m c n m m t.y.p.m m 3 = 5 5 d d s 6 * $ 3 c # + - z X.O.",
"-.=.x z ^ _ ( P F j s 7 c n m m Y m n 1 6 k O.+.O.[ i 5 s 5 * 1 m m m n , 2 , n m m r.m m c * - p p f f d k i - - 2 * - p O.@.-.",
":.:.X.z ~ ` ) R [ z s 5 - 1 4 v m m 8 = - l [ | o.[ z l o.} 5 * n n n 3 6 - % 1 c m m m b # * i p f g g X.=.} s i i 5 k z | @.=.",
":.z.o.l l K | | } ] k s s p q 4 m b 2 - i d x } | } ] } @.+.d - t c 3 q i - - - # c m m < ; N B D g k k ;.;.o.d d d s z z x | | ",
"+.-.] ] g ] { ] [ } ] ] ] d d p c 4 - i p ] } } x z ] | | | a i $ * d i a a a - @ # c n % V S S P H k z :.:.+.] d g a a ] ] ] o.",
";.o.{ ] g ] { ] ] ] | } ] ] k ] d i i p ] } | | X.] ] | | z g i - - a ] k a a a 5 * % 3 - S S P U H l } z.:.+.] g ] ] i a ] =.:.",
":.O.| o.] ] o.] ] ] ] | [ [ [ [ l k ] } } | | o.X.| X.| ] l l i i 5 a a i i a a i p = = 5 A S U H l l o.:.:.O.] d g a ] o.:.:.:.",
"=.| ] ] ] ] o.o.} ] ] ] [ } } } ] l ] | o.-.o.| | X.| X.x z l i i p g a a [ +.] g d - 5 q f H l f k l X.=.+.X.| d ] ] :.:.:.:.:.",
"} ] ] ] g ] { | | { ] ] ] ] { { ] ] ] +.:.:.;.o.X.| ] l d l d p p g k g a -.:.+.k k d i d ] d a p p l =.:.:.O.] ] ] :.:.:.=.o.| ",
"] ] ] a a d X.X.o.o.o.} ] ] ] { ] ] ] -.:.:.o.o.| | g a d l a a a k k a a +.:.;.l l k l g d g a i s g ;.:.;.l a d ] :.:.+.| o.] ",
"a i a a a g ] X.o.o.o.| o.{ { o.O.| ] ] O.} o.o.X.| a p l l l d k k k k ] O.:.z.{ z z l a g ] g s a g l X.g a l ] ] :.:.o.o.] ] ",
"a a a a a a a ] { | | o.o.] { { o.o.x.| ] ] | } z p p p l l l l ] ] k k ] +.:.:.+.+.;.:.:.:.:.;.s a f a p g l l ] g =.+.| ] ] ] ",
";.=.] a a a a a a a ] a a a a i [ 2.4.4.L x l a p p p f l l ] O.o.| | ] a ] | +.:.:.:.:.:.:.;.] a a a g d ] ] d a a ] +.:.:.:.:.",
"z.:.:.a a i a a ] - a i a i i ] 4.4.4.4.d a p a p p d l l O.:.:.:.:.z.:.] 5 a { -.=.+.X.:.:.:.] a a a g g d ] ] ] ] a ;.:.:.:.:.",
";.:.:.o.- a 5 ] o.{ ] ] ] a a ] <.4.4.! a l l d d l l l =.:.:.=.=.-.:.;.] i a ] | X.o.X.+.:.:.:.] i a ] ] d g ] a ] - X.-.-.=.=.",
"o.=.:.:.] a a { :.;.| ] ] ] ] ] K ' 4.f d x ] x ] { l z :.:.O.| o.| | | ] ] o.-.| | | X.| O.:.:.] a g g d ] g ] ] g d g ] ] O.] ",
"| o.=.:.] ] ] ] +.:.:.=.] ] ] i a a p p x x L ] ;.:.+.] z X.X.X.| | o.o.] ;.:.:.+.X.] ] | o.o.o.] g ] ] ] g a d g ] d a a a ] X.",
"] { ] a a ] ] ] o.+.:.:.+.{ ] ] p p p g k x [ | ;.:.=.] d d } ] { o.| o.-.:.:.-.o.X.] ] ] o.o.o.] g ] O.] g a a d g a a a a ] ] ",
"a i i - ] ] ] ] { | +.:.:.:.:.:.| | | x k k | | o.O.] ] g i x ] { o.o.:.:.:.=.o.| ] ] ] ] | | ] O.:.:.:.-.g a a a a a a a a ] g ",
"{ ] a ] a ] a ] ] | o.o.=.;.:.;.o.} x x x k | | | ] ] z z z l ] ] | =.:.:.=.| | | ] ] o.] ] ] d :.:.:.:.+.] g a a a a g d a a a ",
":.:.] ] ] ] a ] g ] | | o.o.| ] ] ] ] ] l { X.| } ] x z ] ] g ] ] ] { =.+.| o.o.X.X.=.:.+.{ i ] { =.+.X.o.] ] - i i a ] ] ] i o.",
":.:.o.] ] ] ] a k ] o.| o.} ] ] ] z z l x X.| X.X.] ] l g g g p ] ] ] { ] ] ] ] ] { :.:.=.X.] ] { { X.X.o.] ] ] a a - ] i a ] +.",
"o.+.] ] ] ] ] ] ] } o.o.} ] ] ] d a d l ] X.X.| { ] ] a a p p p i ] i a ] ] ] ] ] ] X.+.o.X.{ ] ] ] X.X.+.-.:.+.] i i a a i ] ] ",
"o.o.] ] ] ] ] ] g | o.o.] ] ] a p d l x | | X.| ] ] } d p p p p ] i a ] i a i a a a ] ] X.X.] ] ] ] +.:.:.:.:.o.a i a a i i ] ] ",
"] ] ] ] ] ] a a a ] | | ] ] g a d l x | X.| } ] ] } ] a a g d d a ] a ] ] ] i ] ] ] a ] ] ] ] ] { :.:.:.-.+.o.{ i a a i a ] ] ] ",
"i a a ] ] | a a a a ] o.[ ] g p k l z } X.X.] ] l d a a g l l l ] a ] ] ] a ] a ] { ] ] i ] ] =.:.:.=.o.X.X.] ] a a a i ] ] d - ",
"a i ] ] ;.:.@.d i a i g ] g a g l l l l z s a d a s i l l l l l ] i ] - ] { o.-.:.:.=.i ] a =.:.;.o.X.X.X.| ] ] a d d ] a ] ] - ",
"a i ] [ ;.:.z.-.g a g a p a g k l l k l g a i a a d l ] l l z z ] ] a i | :.:.:.:.:.+.] ] ] =.=.{ ] { X.X.{ ] ] ] ] ] g ] d ] a ",
"] ] ] ] { =.:.:.O.a ] ] ] ] ] ] l k p p l l l z ] ;.:.:.} l l l i ] - ] :.:.:.=.o.{ ] ] a i { { ] ] ] ] X.| $.z.+...>.J l l l g ",
"] ] ] ] { | =.:.o.p k [ ] ] ] ] x k k k l l l z o.:.:.:.+.x a a i i a { :.:.] ] ] { ] ] ] i ] { X.| ] ] ] | ,.z.5.5.5.,.l l l l ",
"] ] a a ] ] o.o.] a { { ] [ [ ] x ] ] ] x z l k ] @.@.+.X.x p i a i a | :.:.| | | o.] ] ] i i ] X.| ] ] ] ]  .1.5.z.z.5.x l l l ",
"] ] ] ] ] ] ] ] g ] o.| { o.o.| [ ] x ] x | ] l z } | } } x G D ] ] ] { :.-.| o.| | ] ] ] a ] - } | ] ] } ] ] ] ..z.z.z.%.] ] x ",
":.:.{ a a ] ] a k ] o.| | X.| o.o.] ] { X.z.:.=.x l l l z H W W k z H z X.X.o.o.o.| ] ] ] ] a ] d | ] ] | X.] ] } >.5.5. .] ] x ",
":.:.o.] i ] ] ] ] ] | o.o.| X.| X.o.o.{ [ :.:.:.:.o.z l | E W W W H W W } O.+.o.| | ] ] ] ] ] ] a g | | X.| } ] ] } k f z ] ] { ",
":.:.| o.i i i ] g k | | | { [ X.X.X.X.| ] { =.:.:.:.[ | :.:. .Q W W Q Q z z.z.=.o.] ] ] i ] i a a a d } X.X.X.| [ ] a a g ] ] O.",
":.-.| ] a - ] a ] ] o.o.o.] ] { X.| X.X.X.] ] X.-.=.] | :.:.[ x l Q ' ' R -.:.+.| ] ] ] i i i i a s d s l } } } } l a a a z ] +.",
":.=.o.] i a ] ] ] ] o.o.{ ] ] ] z | | X.| X.[ ] ] x ] } | } x ] l ! ` <.E z ] z | ] ] ] k p p p a g l l x ] ] ] ] z s a a g | +.",
"+.o.] ] a i ] ] { { { ] ] ] i ] } | X.| X.| | | } ] [ } [ x ] x l z ~ ~ z l l l ] ] ] ] g p p p g l l l l l l z z l z s a ] | X.",
"{ { ] i ] a ] ] { ] ] ] ] a ] ] | X.| X.| o.| | | @.:.@.[ x [ ] x l l l d g g l k a d p p p d l l l l l l l l l l l l ] } | } | ",
"] ] ] i a ] ] ] { ] ] ] ] ] [ { X.| X.| X.| | o.X.:.:.:.| | | { [ | ] g p p g l l z k l g ] ] ] ] ] z l x x l l l { X.} ] ] ] ] ",
"{ ] i ] ] i a ] ] ] i a ] ] { | X.X.| X.| X.| | | o.@.+.} X.X.X.;.:.| x p p g l z ] ] ] ] ] ] ] ] ] ] O.:.:.O.X.| | [ ] ] ] ] } ",
"o.{ i ] a ] ] ] ] ] a a ] ] o.+.o.| X.| X.| X.| } [ x [ | | | O.:.:.O.[ p p g g l z ] ] ] ] ] ] ] ] { :.:.:.o.X.| | ] ] [ | X.X.",
"o.o.] a ] ] ] ] ] ] ] ] +.;.:.:.;.| X.L ] ] x ] ] ] ] z x l d [ @.+.X.g p p p g l z X.=.| ] ] ] ] ] | O.=.O.X.X.| | [ [ | X.| X.",
"{ o.] ] ] ] ] i ] ] [ ;.:.:.:.:.@.| | [ x ] ] ] x k s a p d l x | | x a p p p p x ] ;.:.:.O.] ] ] x ] } | } ] | | X.| o.o.| X.| ",
"o.{ ] ] a ] a a i ] O.:.:.-.+.o.X.] a d x z z g a i g g l l l l l d p a p a p a z | +.:.:.:.O.z z z l z ] ] ] ] | X.O.:.:.:.;.X.",
"{ { a ] ] ] a a - ] :.:.:.o.| ] ] f p p a a a a g z l l l l d d s a [ =.;.x l l l X.X.O.;.:.;.z z z z z x ] ] ] x | :.:.:.:.:.X.",
"o.] ] a i i a i i ] :.:.o.{ ] ] z p a a p a a a g z z l l d p p d =.:.:.:.+.z l l X.X.o.O.:.+.] ] ] ] ] ] s x ] x X.:.:.:.:.+.X.",
"{ ] a ] i i i i i a +.O.{ ] ] ] a p p a d d i a d [ l l l l p i +.:.:.:.=.X.] ] ] | X.] ] ] ] ] ] ] ] x x g p a g k :.-.] } | X.",
"] ] ] - a a a - i - ] { ] ] ] ] p p p g L l a a / z.%.x ] ] z ] :.:.=.X.X.} [ | X.] ] ] ] ] ] ] z z z z z d a a a a a l ] ] ] [ ",
"] ] a i i i ] ] ] ] ] ] ] ] ] a a d l L ] L / <.5.z.2.x z z z X.=.:.+.X.| X.X.| ] ] ] ] ] z l z l z z z z l a a p a a a d l x ] ",
"] a a a a ] ] ] ] ] ] ] ] ] ] ] l x x l x 2.z.z.5.5.2.z z z ] X.X.X.X.| X.| } ] ] ] ] l l z z l l ] | z z l l g g g [ l d a s g ",
"i ] i ] o.] a ] a ] a ] ] { +.] x l l x L 5.z.z.5.5.%.z z z ] X.X.X.| X.| X.[ x z l g l l l l l { :.:.+.| x z z l x | X.X.] l s "
};
