/* XPM */
static char *a0dfefafa753433db9825212620596e1Y14tLJm3OpPLYa5m[] = {
/* columns rows colors chars-per-pixel */
"64 64 122 2 ",
"   c #000000",
".  c #4D1709",
"X  c #4F1809",
"o  c #541A09",
"O  c #5C1C0A",
"+  c #631E0B",
"@  c #681F0C",
"#  c #67200C",
"$  c #6C210C",
"%  c #74240D",
"&  c #7C260E",
"*  c gray27",
"=  c #4E4E4E",
"-  c #565656",
";  c gray35",
":  c #676767",
">  c #6E6E6E",
",  c #747474",
"<  c #7E7E7E",
"1  c #82270E",
"2  c #84290F",
"3  c #8A2A0F",
"4  c #862910",
"5  c #8C2B10",
"6  c #932E11",
"7  c #982F12",
"8  c #9D3112",
"9  c #A33313",
"0  c #AB3514",
"q  c #B13714",
"w  c #B43815",
"e  c #BB3A16",
"r  c #C33D17",
"t  c #C93E17",
"y  c #C73E18",
"u  c #CA3F18",
"i  c #CE4119",
"p  c #D24118",
"a  c #D94319",
"s  c #D84319",
"d  c #DA4419",
"f  c #818181",
"g  c gray51",
"h  c #838383",
"j  c #848484",
"k  c gray52",
"l  c #868686",
"z  c gray53",
"x  c #888888",
"c  c #898989",
"v  c gray54",
"b  c #8B8B8B",
"n  c gray55",
"m  c #8D8D8D",
"M  c #8E8E8E",
"N  c gray56",
"B  c #909090",
"V  c gray57",
"C  c #939393",
"Z  c gray58",
"A  c #959595",
"S  c gray59",
"D  c gray60",
"F  c #9A9A9A",
"G  c #9B9B9B",
"H  c gray62",
"J  c #A0A0A0",
"K  c gray63",
"L  c #A2A2A2",
"P  c gray64",
"I  c #A4A4A4",
"U  c #A5A5A5",
"Y  c gray65",
"T  c #A7A7A7",
"R  c gray66",
"E  c #A9A9A9",
"W  c #AAAAAA",
"Q  c gray67",
"!  c #ACACAC",
"~  c gray68",
"^  c #AEAEAE",
"/  c #AFAFAF",
"(  c gray69",
")  c #B1B1B1",
"_  c #B2B2B2",
"`  c gray70",
"'  c #B4B4B4",
"]  c gray71",
"[  c #B6B6B6",
"{  c gray72",
"}  c #BBBBBB",
"|  c #BCBCBC",
" . c gray74",
".. c gray",
"X. c gray75",
"o. c #C0C0C0",
"O. c #C1C1C1",
"+. c gray76",
"@. c #C3C3C3",
"#. c gray77",
"$. c #C5C5C5",
"%. c #C6C6C6",
"&. c gray78",
"*. c #C8C8C8",
"=. c gray79",
"-. c #CACACA",
";. c #CBCBCB",
":. c gray80",
">. c #CDCDCD",
",. c #CECECE",
"<. c gray81",
"1. c #D0D0D0",
"2. c #D2D2D2",
"3. c LightGray",
"4. c gray83",
"5. c #D5D5D5",
"6. c gray84",
"7. c #D7D7D7",
"8. c #D8D8D8",
"9. c gray85",
"0. c #DADADA",
"q. c gray86",
/* pixels */
"r p d s p i i y r e e e q q 0 0 e u p s p p u u y r e e q q q 0 e r p d p p i r y e e e q q 0 0 e i p p p i i y y e e e q q 0 7 ",
"w u s s s i i i r r e e q q 0 0 0 e p s i p i u r e e e q q 0 0 0 e p p p p i i y e e e w q 0 0 0 e p s p i i y r r e e q q 0 6 ",
"q r s p i y y e e q 0 0 9 8 6 6 9 e u p i u y e e q 0 9 9 8 7 6 9 e i p i r r e w w 0 0 8 8 7 6 9 e i i i y y e e q 0 0 9 8 7 & ",
"0 r p p i y r r e q q 9 9 8 7 6 9 e u p i u r e e e 0 0 9 8 7 6 9 e y i i i r e e w 0 0 9 8 7 6 8 e i i i i r r e q 0 0 9 8 7 & ",
"q r p p p i r e e e 0 9 9 8 7 6 9 w u p i y y e q q q 9 9 8 7 6 9 e u p i y r e e w 0 9 9 8 7 7 9 w u p i y r e e q 0 0 9 8 7 & ",
"q r p p i y y e q q 0 0 9 8 8 5 9 q u p i y y e e q q 9 9 8 7 6 9 e u p i i y e w w 0 0 8 8 7 5 9 e i p i y y e e q 0 0 9 8 7 & ",
"q r p p i r r e e q 0 0 9 8 7 6 9 e u p i i r r e q q 0 9 8 8 6 9 q u p i y r e e q 0 0 9 8 7 7 9 w i p i y r e w q 0 0 9 8 7 & ",
"q r s p i i r e e q 0 0 9 8 8 5 9 e u i i y r e e q 0 9 9 8 7 5 9 e u i i i r r e w 0 0 9 8 7 5 9 w i i i i r e e q 0 0 9 8 7 & ",
"0 r p p i i i e e q 0 0 9 8 7 6 9 e u p i u r r e q 0 0 9 8 7 6 9 w u p i y r r e w 0 9 9 8 7 6 9 q i i i i i e e q q 9 9 8 8 & ",
"q i p p i i e e e w 0 9 9 8 7 6 9 w u p i u r e e q 0 0 9 8 7 5 9 w u p i u r e e q 0 0 9 8 7 6 9 q i i i i e r e w q 9 9 8 7 & ",
"0 i p p i r r e w w 0 0 9 8 7 6 9 w u i i r r e e q 0 0 9 8 7 6 9 w u p i y y e e w q 9 9 8 7 6 9 e i i i r e e w w 0 0 9 8 7 & ",
"0 e i i i i i e e q 0 0 9 8 6 6 9 e u i i u r r e q 0 0 9 8 8 6 9 e u p i y r r e w 0 0 9 8 7 5 9 q i i i i i e e q 0 9 9 8 7 & ",
"q e i p i i e e e w 0 9 9 8 7 6 9 e i i i i i r e w 0 9 9 8 7 5 9 w i p i y r e w q 0 0 9 8 7 6 9 w i i i i e e e w q 9 9 8 7 & ",
"q i p p i r r e w w 0 0 9 8 7 6 9 e i i i i e e w q 0 0 9 8 7 6 9 e u p i y r r e w 0 9 9 8 7 6 9 e i p i r r e w w q 0 9 8 7 & ",
"0 y s p i i i e e q 0 0 9 8 7 6 9 q i i i r r e e w q 9 9 8 8 5 9 w i p i u r e w w 0 0 9 8 7 6 8 e i i i i r r e q 0 9 9 8 7 & ",
"q y p p i i e e e w 0 0 9 8 6 6 8 q i i i i r e e w 0 0 9 8 7 6 9 w i p i y r e e q 0 0 9 8 7 6 9 e u i i i r e e q q 9 9 8 7 & ",
"0 r i i i y e e w 0 0 9 9 8 7 6 9 q u i t r r e w q 0 9 9 8 7 6 9 w t i i r e e w q 0 9 9 7 7 6 9 q y i u r r e w q 0 9 9 8 7 % ",
"9 w y r r e w q 0 0 9 8 7 6 5 4 7 0 r r e e e q 0 0 9 8 8 3 5 5 8 0 e r e e e q 0 9 9 8 7 6 3 4 8 0 e r r e w q 0 0 9 8 7 6 3 % ",
"5 8 0 0 0 8 8 7 6 5 5 4 1 & & % 2 5 9 9 9 9 8 7 6 5 5 4 2 & % % 2 5 9 9 9 9 8 7 6 6 3 3 1 & & % 4 6 9 0 9 8 8 6 6 6 5 4 2 & & + ",
"$ & 4 4 & & & % % % $ # + + O O # % 2 2 2 & & % % % $ # # + O O # % 2 2 2 & & % % % $ # + + O O + % & 2 4 & & % % $ # # + + O X ",
"- > f x M b b b c c b c l g g c b c b c c c b c c c b c c c c c l j c b c b c b c c c b c b c l z b b b c b b b b c c c c g > - ",
"> b I ^ ) ( ^ ^ / / / / T U U U / / / / / / / / / / ) ~ ) / ) ~ U U T ~ / / / / / / / / ~ ~ U U U ! / / / / / / / / / / ~ U c > ",
"f I o.;.>.>.>.>.>.>.:.%.O.O.O.O.*.>.>.>.>.>.>.>.>.>.>.>.>.>.>.>.:.O.O.O.-.>.>.>.>.:.:.-.@.O.O.O.O.+.:.:.:.:.:.>.>.>.>.>.;.o.U g ",
"k Q -.6.8.8.8.8./ ~ U I I U I U I T W ! 7.8.8.8./ / / ~ 9.9.9.9.7.7.<.:.I ! / ~ 1.<.-.:.I I U U I I T / / / / / 8.9.8.9.4.%.W l ",
"f I O.2.q.q.q.)                         T >.<.T         l 4.9.q.q.q.q.!         W >.>.U                         ) q.9.8.;.O.I g ",
"f U o.-.<.q.q.)                         T <.>.W           g >.4.q.q.q.`         U >.>.W                         ) q.9.1.;.O.I g ",
"f U O.;.>.<.3.!                         U >.>.W             < >.4.q.q.`         U 1.>.U                         / 8.1.1.-.O.I g ",
"f U O.;.<.>.<.R                         W >.>.U               < <.1.7.)         W >.>.W                         R >.>.>.;.O.I f ",
"f U o.;.>.>.<.>.Q T T b         z U T T >.>.<.T                 g >.>.W         U >.>.1.W U W l         x R U R 1.>.>.>.;.O.I g ",
"f U o.;.>.<.>.<.,.,.,.T         W >.<.>.>.<.>.T                   < >.T         W 1.>.>.>.>.>.U         R >.>.1.>.>.1.1.;.o.I g ",
"f U O.>.<.<.>.>.,.,.,.T         U <.>.<.<.>.<.U                     g W         U >.>.1.>.>.1.W         R >.>.1.>.1.>.>.-.O.U g ",
"f U O.;.<.>.<.<.,.,.,.T         T >.<.>.>.<.>.W                       ;         W >.>.>.1.>.>.U         R >.>.1.>.>.1.>.;.O.I f ",
"g U O.;.>.>.>.1.1.1.>.R         W >.>.>.>.>.>.W         =                       R >.,.,.,.,.,.R         U >.1.1.>.>.>.>.>.O.U g ",
"g I o.;.1.1.>.>.>.>.>.R         U >.1.1.1.>.>.U         W ,                     R >.,.,.,.,.,.U         R 1.>.>.>.1.1.>.>.O.I g ",
"g I O.;.>.>.1.>.>.>.>.R         W >.>.>.>.>.1.W         T >.,                   R >.,.>.,.>.>.R         U >.1.>.>.>.>.1.-.O.U g ",
"g U O.;.>.1.>.>.-.-.-.R         W >.1.>.>.1.>.U         W >.,.,                 R >.1.1.1.1.1.R         R >.-.-.>.1.1.>.-.O.I f ",
"f U O.;.1.>.| ) / / / N         U >.>.>.>.%.| S         R >.>.,.,               R >.>.,.,.,.,.U         F ) ) ~ ~ ) O.>.;.O.U g ",
"f I O.;.>.} / / / / / N         P %.%.| ) ) ) m         U >.,.,.<.,             R >.,.,.,.,.,.R         m / ~ ) ) ) ~ o.;.O.I g ",
"g I O.;.o./ / / / / / m         m ~ ~ ~ ) ~ ) m         B } -.>.>.<.,           R >.,.,.,.,.>.R         m ~ ) ~ ~ ) ~ ) | o.U g ",
"< H [ [ / / / / / / / N         V ) ~ ) ~ ) ~ m         m ( ~ [ %.>.>.<         R ,.,.>.&.,.1.R         N ) ~ ) ~ ~ ) ~ ~ R F < ",
"> x P W Q ~ ~ ~ '  ...) n n b n ~ ~ ~ ~ ~ ~ ~ ~ n n n n ~ ~ ~ ~ ~ ) O.:.U U I U ;.&.' ~ ~ ) O.&.I U C n ~ ~ ~ ~ ~ ~ ~ ~ W P c > ",
": g D P P I U ~ O.O.O.O.~ U I U P U U U ) | O.[ T I I I I I I I I I U { O.O.O.O. .R U I I U U ~ ..o.I I I I I I U U U P P F g : ",
"- , g c b b V U L U U I U C n n m m m P U P U U P m m m n m n n b m b m H U U U V n c c n n n b A G n n n n n n m m b b c g > - ",
"* - : > > > < g f f f f f f , > > > < g g g g g g < > > > > > > > > > > , f h , > > > > > > > > > , > > > > > > > > > > > : ; * ",
"@ $ % % $ @ + + O O O O o X . . O @ $ % @ @ + + + O O o o . . . O + % % @ @ @ + + O O o o X X . O @ $ $ @ @ @ + + O O o o o X X ",
"& 1 3 3 3 3 1 1 & & % @ $ @ + + @ 1 3 3 3 3 1 1 & % % $ $ # # + # 1 3 3 3 3 1 & & % % % $ @ + + @ 1 3 5 3 1 1 1 & % % % $ @ + O ",
"9 q r e e w 0 0 9 9 8 7 6 3 3 1 3 9 e e e w 0 0 0 8 8 6 6 5 4 4 3 9 e e e w 0 0 9 9 7 6 6 3 3 1 3 9 e r e w q 0 9 9 7 7 7 3 3 & ",
"0 r p p t r r e w q 0 9 8 8 6 6 6 w t i t r r e q q 0 0 8 8 7 5 7 q t i t r r e e q 0 9 8 8 6 6 7 w t t t r r e w 0 0 9 8 8 7 4 ",
"0 r u s i y r r w w 0 0 9 8 7 6 7 w u s u u r e e q 0 0 9 8 7 6 8 w t i i t r e w w 0 0 9 8 8 5 7 w t p i i e r w w 0 0 9 8 8 5 ",
"q r d u i y r e e w 0 0 9 7 7 6 7 w u u s u r r e q 0 0 9 8 7 6 7 w i p i i r e e w q 9 9 8 7 6 6 e u u i i r e e q 0 0 8 8 7 5 ",
"q y s u i u y e w w 0 0 9 8 7 6 7 w u s u u r e e e 0 0 9 8 7 6 6 w t p i i r r w w 0 0 9 8 7 6 7 w u s i r r r e w q 9 9 8 7 5 ",
"q r s s i y r r e w 0 9 9 7 7 6 7 e u u p u r e q q 0 0 9 8 7 5 7 w i p i r r e e w q 9 9 8 7 6 7 e t p i u r e w q q 0 8 8 7 5 ",
"0 y p p p u r e e w q 9 9 8 7 6 7 w u s u t r e e q q 9 9 8 7 6 7 w i p i r r r e w 0 9 9 8 7 6 6 e t p i t r r e w q 9 9 8 8 5 ",
"0 r p s i u r r e q q 0 9 8 7 6 7 w u u u t r e e q 0 0 9 8 7 6 7 q i p i i r e w q 0 0 9 8 7 5 6 w i p i i r e e q q 0 9 8 7 5 ",
"q r s p i u r e w q q 9 9 8 7 6 7 w u u u u r r e q 0 0 9 8 7 6 7 w t p i t r e e w q 9 9 8 7 6 7 w t p i i r e w q q 9 9 8 7 5 ",
"q r p u i u r e e w 0 0 9 7 7 6 7 r u s u u r e e q 0 9 9 8 7 6 7 w t p i t r e e w 0 0 9 8 7 6 6 e t p i r r e e w q 9 9 8 7 4 ",
"0 r p p i y y e w w q 0 8 8 7 6 6 w t u u u r r e w 0 9 9 8 6 6 7 w t p i i e e e w 0 9 9 9 7 6 7 w t i i i r e w w q 0 8 8 7 5 ",
"q y s p i y y e e q 0 9 9 8 7 6 8 w t u u u r e e w 0 0 9 8 7 6 7 w i i i t r r w w 0 0 9 8 7 6 6 w i p i i r r e q 0 0 9 8 7 5 ",
"w r p p i u r r e w 0 0 8 8 7 6 8 q t a d u t r w w 0 0 9 8 7 6 7 e i i i i r e e q 0 0 9 8 7 6 8 w t i i r r e e w 0 0 9 8 7 5 ",
"q r p p i y r e w q 0 0 9 8 7 6 8 r t t u u t r e q 0 9 9 8 6 6 7 q i i i i r e e w 0 9 9 8 7 5 7 w i i i i r r w q 0 9 9 8 7 5 ",
"q r i s i u r e e w q 0 9 8 7 6 7 w t t t t r e w w 0 0 9 8 6 6 7 e t u i i r e e w 0 0 9 8 8 5 7 w i p i e r e w w q 0 9 8 7 5 ",
"0 e p i i r r e w q 0 9 9 8 6 6 6 q t t t r r r w w 0 9 9 8 7 6 6 w t t r r r e w q 0 9 9 8 7 6 6 q t t i i e e e q 0 9 8 8 7 5 ",
"7 q r r e e e q 0 9 9 9 8 8 7 6 3 9 w r r e w q 0 0 9 9 8 7 7 6 3 9 e r e e w q 0 0 9 9 8 7 6 6 3 9 e r e e e q 0 9 9 9 8 8 7 4 ",
"9 0 r r e e q q q 0 9 9 8 7 6 6 3 9 e r e e e w 0 0 9 9 9 7 7 6 3 9 w r r e w q 0 0 9 9 8 8 7 6 3 9 e e e e w w q 0 9 9 8 7 7 4 "
};
